<?xml version="1.0" encoding="utf-8"?>
<!DOCTYPE svg PUBLIC "-//W3C//DTD SVG 1.1//EN" "http://www.w3.org/Graphics/SVG/1.1/DTD/svg11.dtd">
<svg version="1.1" id="Layer_1" xmlns="http://www.w3.org/2000/svg" xmlns:xlink="http://www.w3.org/1999/xlink" x="0px" y="0px"
	 width="582.917px" height="60px" viewBox="0 0 582.917 60" enable-background="new 0 0 582.917 60" xml:space="preserve">
<g>
	<path fill="#3A58A8" d="M93.975,55.667c0,1.699-1.377,3.074-3.073,3.074H4.835c-1.697,0-3.073-1.375-3.073-3.074V4.184
		c0-1.7,1.376-3.075,3.073-3.075h86.066c1.695,0,3.073,1.375,3.073,3.075V55.667z"/>
	<g>
		<polygon fill="#FFFFFF" points="44.198,38.581 39.692,38.581 42.508,21.279 47.012,21.279 		"/>
		<path fill="#FFFFFF" d="M35.902,21.279l-4.293,11.9L31.1,30.617l0,0l-1.515-7.777c0,0-0.184-1.561-2.136-1.561h-7.101
			l-0.081,0.292c0,0,2.171,0.452,4.71,1.979l3.914,15.03h4.693l7.168-17.302H35.902z"/>
		<path fill="#FFFFFF" d="M71.335,38.581h4.134l-3.604-17.302h-3.622c-1.672,0-2.081,1.289-2.081,1.289l-6.717,16.013h4.696
			l0.938-2.567h5.728L71.335,38.581z M66.378,32.462l2.367-6.477l1.332,6.477H66.378z"/>
		<path fill="#FFFFFF" d="M59.797,25.44l0.642-3.716c0,0-1.983-0.754-4.05-0.754c-2.236,0-7.544,0.976-7.544,5.729
			c0,4.47,6.23,4.526,6.23,6.87c0,2.348-5.589,1.932-7.431,0.45L46.972,37.9c0,0,2.012,0.979,5.085,0.979
			c3.074,0,7.712-1.593,7.712-5.923c0-4.501-6.286-4.922-6.286-6.875C53.482,24.126,57.871,24.376,59.797,25.44z"/>
	</g>
	<path fill="#FAA634" d="M31.1,30.617l-1.515-7.777c0,0-0.184-1.561-2.136-1.561h-7.101l-0.081,0.292c0,0,3.411,0.71,6.684,3.354
		C30.079,27.463,31.1,30.617,31.1,30.617z"/>
</g>
<g>
	<path fill="#14477C" d="M192.219,55.678c0,1.692-1.372,3.063-3.064,3.063h-85.747c-1.691,0-3.061-1.371-3.061-3.063V4.386
		c0-1.695,1.37-3.065,3.061-3.065h85.747c1.692,0,3.064,1.37,3.064,3.065V55.678z"/>
	<g>
		<polygon fill-rule="evenodd" clip-rule="evenodd" fill="#FBB230" points="157.306,46.513 158.158,46.492 158.997,46.432 
			159.82,46.325 160.64,46.18 161.433,45.996 162.217,45.773 162.984,45.513 163.734,45.218 164.469,44.885 165.18,44.524 
			165.872,44.122 166.541,43.697 167.187,43.234 167.812,42.745 168.41,42.229 168.984,41.678 169.533,41.105 170.052,40.501 
			170.542,39.881 171.001,39.237 171.431,38.565 171.829,37.872 172.189,37.162 172.525,36.428 172.817,35.678 173.081,34.909 
			173.303,34.127 173.486,33.33 173.63,32.513 173.735,31.69 173.798,30.854 173.819,30.001 173.798,29.155 173.735,28.321 
			173.63,27.499 173.486,26.692 173.303,25.899 173.081,25.12 172.817,24.352 172.525,23.606 172.189,22.879 171.829,22.168 
			171.431,21.483 171.001,20.812 170.542,20.167 170.052,19.548 169.533,18.947 168.984,18.375 168.41,17.83 167.812,17.313 
			167.187,16.824 166.541,16.362 165.872,15.933 165.18,15.539 164.469,15.18 163.734,14.844 162.984,14.55 162.217,14.291 
			161.433,14.068 160.64,13.883 159.82,13.739 158.997,13.633 158.158,13.572 157.306,13.549 156.462,13.572 155.624,13.633 
			154.799,13.739 153.987,13.883 153.191,14.068 152.41,14.291 151.646,14.55 150.897,14.844 150.168,15.18 149.464,15.539 
			148.773,15.933 148.104,16.362 147.461,16.824 146.838,17.313 146.245,17.83 145.669,18.375 145.124,18.947 144.608,19.548 
			144.119,20.167 143.663,20.812 143.234,21.483 142.841,22.168 142.473,22.879 142.147,23.606 141.851,24.352 141.595,25.12 
			141.374,25.899 141.188,26.692 141.042,27.499 140.938,28.321 140.878,29.155 140.856,30.001 140.878,30.854 140.938,31.69 
			141.042,32.513 141.188,33.33 141.374,34.127 141.595,34.909 141.851,35.678 142.147,36.428 142.473,37.162 142.841,37.872 
			143.234,38.565 143.663,39.237 144.119,39.881 144.608,40.501 145.124,41.105 145.669,41.678 146.245,42.229 146.838,42.745 
			147.461,43.234 148.104,43.697 148.773,44.122 149.464,44.524 150.168,44.885 150.897,45.218 151.646,45.513 152.41,45.773 
			153.191,45.996 153.987,46.18 154.799,46.325 155.624,46.432 156.462,46.492 157.306,46.513 157.306,46.513 		"/>
		<polygon fill-rule="evenodd" clip-rule="evenodd" fill="#EB2230" points="135.258,46.513 136.1,46.492 136.942,46.432 
			137.765,46.325 138.577,46.18 139.371,45.996 140.153,45.773 140.917,45.513 141.668,45.218 142.396,44.885 143.102,44.524 
			143.79,44.122 144.459,43.697 145.104,43.234 145.726,42.745 146.32,42.229 146.894,41.678 147.438,41.105 147.956,40.501 
			148.444,39.881 148.899,39.237 149.328,38.565 149.723,37.872 150.09,37.162 150.419,36.428 150.712,35.678 150.969,34.909 
			151.189,34.127 151.377,33.33 151.517,32.513 151.625,31.69 151.685,30.854 151.707,30.001 151.685,29.155 151.625,28.321 
			151.517,27.499 151.377,26.692 151.189,25.899 150.969,25.12 150.712,24.352 150.419,23.606 150.09,22.879 149.723,22.168 
			149.328,21.483 148.899,20.812 148.444,20.167 147.956,19.548 147.438,18.947 146.894,18.375 146.32,17.83 145.726,17.313 
			145.104,16.824 144.459,16.362 143.79,15.933 143.102,15.539 142.396,15.18 141.668,14.844 140.917,14.55 140.153,14.291 
			139.371,14.068 138.577,13.883 137.765,13.739 136.942,13.633 136.1,13.572 135.258,13.549 134.404,13.572 133.566,13.633 
			132.743,13.739 131.924,13.883 131.131,14.068 130.346,14.291 129.579,14.55 128.831,14.844 128.094,15.18 127.383,15.539 
			126.696,15.933 126.022,16.362 125.376,16.824 124.752,17.313 124.153,17.83 123.58,18.375 123.031,18.947 122.511,19.548 
			122.025,20.167 121.562,20.812 121.132,21.483 120.734,22.168 120.374,22.879 120.041,23.606 119.746,24.352 119.484,25.12 
			119.26,25.899 119.077,26.692 118.933,27.499 118.828,28.321 118.765,29.155 118.744,30.001 118.765,30.854 118.828,31.69 
			118.933,32.513 119.077,33.33 119.26,34.127 119.484,34.909 119.746,35.678 120.041,36.428 120.374,37.162 120.734,37.872 
			121.132,38.565 121.562,39.237 122.025,39.881 122.511,40.501 123.031,41.105 123.58,41.678 124.153,42.229 124.752,42.745 
			125.376,43.234 126.022,43.697 126.696,44.122 127.383,44.524 128.094,44.885 128.831,45.218 129.579,45.513 130.346,45.773 
			131.131,45.996 131.924,46.18 132.743,46.325 133.566,46.432 134.404,46.492 135.258,46.513 135.258,46.513 		"/>
		<polygon fill-rule="evenodd" clip-rule="evenodd" fill="#FBB230" points="144.354,19.871 153.11,19.871 153.11,18.974 
			145.107,18.974 144.354,19.871 144.354,19.871 		"/>
		<polygon fill-rule="evenodd" clip-rule="evenodd" fill="#FBB230" points="143.041,21.862 153.11,21.862 153.11,20.967 
			143.567,20.967 143.041,21.862 143.041,21.862 		"/>
		<polygon fill-rule="evenodd" clip-rule="evenodd" fill="#FBB230" points="142.06,23.848 153.11,23.848 153.11,22.95 
			142.452,22.95 142.06,23.848 142.06,23.848 		"/>
		<polygon fill-rule="evenodd" clip-rule="evenodd" fill="#FBB230" points="141.389,25.836 153.11,25.836 153.11,24.942 
			141.668,24.942 141.389,25.836 141.389,25.836 		"/>
		<polygon fill-rule="evenodd" clip-rule="evenodd" fill="#FBB230" points="141.778,35.457 153.136,35.457 153.136,34.561 
			141.499,34.561 141.778,35.457 141.778,35.457 		"/>
		<polygon fill-rule="evenodd" clip-rule="evenodd" fill="#FBB230" points="142.615,37.445 153.136,37.445 153.136,36.55 
			142.201,36.55 142.615,37.445 142.615,37.445 		"/>
		<polygon fill-rule="evenodd" clip-rule="evenodd" fill="#FBB230" points="143.797,39.431 153.136,39.431 153.136,38.536 
			143.234,38.536 143.797,39.431 143.797,39.431 		"/>
		<polygon fill-rule="evenodd" clip-rule="evenodd" fill="#FBB230" points="145.42,41.42 153.136,41.42 153.136,40.519 
			144.636,40.519 145.42,41.42 145.42,41.42 		"/>
		<polygon fill-rule="evenodd" clip-rule="evenodd" fill="#FBB230" points="140.996,27.82 153.11,27.82 153.11,26.925 
			141.167,26.925 140.996,27.82 140.996,27.82 		"/>
		<polygon fill-rule="evenodd" clip-rule="evenodd" fill="#FBB230" points="148.379,33.471 152.998,33.471 152.998,32.574 
			148.545,32.574 148.379,33.471 148.379,33.471 		"/>
		<polygon fill-rule="evenodd" clip-rule="evenodd" fill="#FBB230" points="148.743,31.485 152.998,31.485 152.998,30.584 
			148.911,30.584 148.743,31.485 148.743,31.485 		"/>
		<polygon fill-rule="evenodd" clip-rule="evenodd" fill="#FBB230" points="140.688,30.584 141.887,30.584 141.887,31.485 
			140.745,31.485 140.688,30.584 140.688,30.584 		"/>
		<polygon fill-rule="evenodd" clip-rule="evenodd" fill="#FFFFFF" points="138.448,29.5 138.37,29.494 138.292,29.485 
			138.219,29.473 138.148,29.461 138.082,29.45 138.009,29.439 137.938,29.43 137.856,29.418 137.78,29.407 137.693,29.4 
			137.592,29.396 137.487,29.388 137.37,29.388 137.243,29.396 137.096,29.407 136.938,29.418 136.824,29.436 136.718,29.45 
			136.625,29.485 136.54,29.517 136.462,29.557 136.393,29.6 136.335,29.657 136.285,29.707 136.251,29.768 136.222,29.828 
			136.213,29.896 136.213,29.962 136.23,30.035 136.251,30.107 136.294,30.181 136.351,30.253 136.462,30.356 136.596,30.441 
			136.752,30.512 136.919,30.574 137.096,30.629 137.281,30.689 137.464,30.757 137.643,30.83 137.81,30.926 137.964,31.04 
			138.104,31.18 138.219,31.351 138.309,31.563 138.363,31.813 138.386,32.113 138.363,32.465 138.325,32.725 138.257,32.954 
			138.168,33.165 138.059,33.348 137.929,33.511 137.786,33.648 137.63,33.771 137.459,33.874 137.281,33.96 137.096,34.032 
			136.909,34.088 136.714,34.132 136.523,34.165 136.339,34.182 136.157,34.193 135.985,34.197 135.745,34.197 135.522,34.193 
			135.329,34.193 135.147,34.188 134.978,34.182 134.828,34.171 134.695,34.16 134.57,34.143 134.451,34.132 134.344,34.109 
			134.24,34.093 134.144,34.064 134.05,34.044 133.96,34.011 133.871,33.979 133.778,33.942 134.028,32.715 134.078,32.725 
			134.14,32.742 134.219,32.762 134.311,32.787 134.412,32.809 134.523,32.83 134.645,32.86 134.778,32.882 134.916,32.903 
			135.06,32.926 135.213,32.942 135.367,32.961 135.529,32.965 135.691,32.97 135.852,32.97 136.013,32.965 136.172,32.932 
			136.302,32.888 136.403,32.824 136.481,32.747 136.535,32.67 136.579,32.582 136.606,32.49 136.631,32.409 136.642,32.247 
			136.59,32.108 136.498,31.997 136.356,31.903 136.193,31.818 135.994,31.738 135.781,31.658 135.562,31.568 135.339,31.471 
			135.129,31.351 134.935,31.209 134.755,31.035 134.616,30.822 134.517,30.574 134.468,30.275 134.473,29.919 134.5,29.703 
			134.537,29.494 134.595,29.304 134.663,29.127 134.751,28.963 134.851,28.815 134.969,28.678 135.106,28.557 135.27,28.45 
			135.445,28.359 135.648,28.278 135.868,28.218 136.12,28.164 136.393,28.128 136.691,28.104 137.019,28.099 137.224,28.099 
			137.414,28.104 137.585,28.112 137.744,28.116 137.879,28.128 138.009,28.138 138.12,28.149 138.219,28.16 138.314,28.173 
			138.39,28.189 138.467,28.2 138.532,28.211 138.585,28.222 138.638,28.226 138.688,28.238 138.729,28.246 138.448,29.5 
			138.448,29.5 		"/>
		<polyline fill="none" stroke="#FFFFFF" stroke-width="0.216" stroke-miterlimit="2.6131" points="138.448,29.5 138.448,29.5 
			138.37,29.494 138.292,29.485 138.219,29.473 138.148,29.461 138.082,29.45 138.009,29.439 137.938,29.43 137.856,29.418 
			137.78,29.407 137.693,29.4 137.592,29.396 137.487,29.388 137.37,29.388 137.243,29.396 137.096,29.407 136.938,29.418 
			136.938,29.418 136.824,29.436 136.718,29.45 136.625,29.485 136.54,29.517 136.462,29.557 136.393,29.6 136.335,29.657 
			136.285,29.707 136.251,29.768 136.222,29.828 136.213,29.896 136.213,29.962 136.23,30.035 136.251,30.107 136.294,30.181 
			136.351,30.253 136.351,30.253 136.462,30.356 136.596,30.441 136.752,30.512 136.919,30.574 137.096,30.629 137.281,30.689 
			137.464,30.757 137.643,30.83 137.81,30.926 137.964,31.04 138.104,31.18 138.219,31.351 138.309,31.563 138.363,31.813 
			138.386,32.113 138.363,32.465 138.363,32.465 138.325,32.725 138.257,32.954 138.168,33.165 138.059,33.348 137.929,33.511 
			137.786,33.648 137.63,33.771 137.459,33.874 137.281,33.96 137.096,34.032 136.909,34.088 136.714,34.132 136.523,34.165 
			136.339,34.182 136.157,34.193 135.985,34.197 135.985,34.197 135.745,34.197 135.522,34.193 135.329,34.193 135.147,34.188 
			134.978,34.182 134.828,34.171 134.695,34.16 134.57,34.143 134.451,34.132 134.344,34.109 134.24,34.093 134.144,34.064 
			134.05,34.044 133.96,34.011 133.871,33.979 133.778,33.942 134.028,32.715 134.028,32.715 134.078,32.725 134.14,32.742 
			134.219,32.762 134.311,32.787 134.412,32.809 134.523,32.83 134.645,32.86 134.778,32.882 134.916,32.903 135.06,32.926 
			135.213,32.942 135.367,32.961 135.529,32.965 135.691,32.97 135.852,32.97 136.013,32.965 136.013,32.965 136.172,32.932 
			136.302,32.888 136.403,32.824 136.481,32.747 136.535,32.67 136.579,32.582 136.606,32.49 136.631,32.409 136.631,32.409 
			136.642,32.247 136.59,32.108 136.498,31.997 136.356,31.903 136.193,31.818 135.994,31.738 135.781,31.658 135.562,31.568 
			135.339,31.471 135.129,31.351 134.935,31.209 134.755,31.035 134.616,30.822 134.517,30.574 134.468,30.275 134.473,29.919 
			134.473,29.919 134.5,29.703 134.537,29.494 134.595,29.304 134.663,29.127 134.751,28.963 134.851,28.815 134.969,28.678 
			135.106,28.557 135.27,28.45 135.445,28.359 135.648,28.278 135.868,28.218 136.12,28.164 136.393,28.128 136.691,28.104 
			137.019,28.099 137.019,28.099 137.224,28.099 137.414,28.104 137.585,28.112 137.744,28.116 137.879,28.128 138.009,28.138 
			138.12,28.149 138.219,28.16 138.314,28.173 138.39,28.189 138.467,28.2 138.532,28.211 138.585,28.222 138.638,28.226 
			138.688,28.238 138.729,28.246 138.448,29.5 		"/>
		<polygon fill-rule="evenodd" clip-rule="evenodd" fill="#FFFFFF" points="139.766,26.871 141.306,26.871 141.075,28.218 
			142.006,28.218 141.806,29.473 140.829,29.444 140.293,32.549 140.289,32.658 140.315,32.752 140.372,32.824 140.444,32.888 
			140.544,32.926 140.656,32.961 140.777,32.981 140.911,32.992 141.035,32.986 141.146,32.978 141.245,32.961 141.333,32.937 
			141.404,32.914 141.455,32.9 141.488,32.888 141.499,32.882 141.306,33.917 141.268,33.942 141.229,33.967 141.188,33.988 
			141.15,34.011 141.112,34.027 141.064,34.044 141.015,34.059 140.965,34.076 140.911,34.093 140.856,34.104 140.79,34.115 
			140.724,34.127 140.649,34.14 140.566,34.148 140.479,34.16 140.383,34.171 139.96,34.171 139.738,34.153 139.544,34.132 
			139.366,34.1 139.214,34.059 139.087,34.011 138.982,33.956 138.887,33.888 138.815,33.813 138.761,33.736 138.72,33.644 
			138.692,33.548 138.677,33.443 138.672,33.325 138.672,33.204 138.688,33.075 138.704,32.937 139.766,26.871 139.766,26.871 		"/>
		<polyline fill="none" stroke="#FFFFFF" stroke-width="0.216" stroke-miterlimit="2.6131" points="139.766,26.871 141.306,26.871 
			141.075,28.218 142.006,28.218 141.806,29.473 140.829,29.444 140.293,32.549 140.293,32.549 140.289,32.658 140.315,32.752 
			140.372,32.824 140.444,32.888 140.544,32.926 140.656,32.961 140.777,32.981 140.911,32.992 140.911,32.992 141.035,32.986 
			141.146,32.978 141.245,32.961 141.333,32.937 141.404,32.914 141.455,32.9 141.488,32.888 141.499,32.882 141.306,33.917 
			141.306,33.917 141.268,33.942 141.229,33.967 141.188,33.988 141.15,34.011 141.112,34.027 141.064,34.044 141.015,34.059 
			140.965,34.076 140.911,34.093 140.856,34.104 140.79,34.115 140.724,34.127 140.649,34.14 140.566,34.148 140.479,34.16 
			140.383,34.171 139.96,34.171 139.96,34.171 139.738,34.153 139.544,34.132 139.366,34.1 139.214,34.059 139.087,34.011 
			138.982,33.956 138.887,33.888 138.815,33.813 138.761,33.736 138.72,33.644 138.692,33.548 138.677,33.443 138.672,33.325 
			138.672,33.204 138.688,33.075 138.704,32.937 139.766,26.871 		"/>
		<polyline fill="none" stroke="#FFFFFF" stroke-width="0.216" stroke-miterlimit="2.6131" points="143.234,31.568 143.234,31.568 
			143.219,31.665 143.215,31.763 143.223,31.868 143.246,31.976 143.288,32.08 143.33,32.182 143.39,32.287 143.458,32.38 
			143.534,32.477 143.618,32.559 143.708,32.643 143.809,32.708 143.906,32.771 144.019,32.817 144.127,32.86 144.241,32.882 
			144.241,32.882 144.389,32.903 144.524,32.921 144.669,32.937 144.814,32.948 144.958,32.954 145.107,32.954 145.254,32.948 
			145.402,32.937 145.553,32.914 145.703,32.888 145.859,32.854 146.009,32.803 146.165,32.742 146.329,32.675 146.48,32.587 
			146.644,32.49 146.42,33.858 146.42,33.858 146.332,33.905 146.245,33.951 146.153,33.983 146.07,34.018 145.988,34.044 
			145.897,34.071 145.81,34.093 145.713,34.109 145.614,34.127 145.502,34.14 145.387,34.148 145.258,34.16 145.113,34.165 
			144.963,34.165 144.793,34.171 144.608,34.171 144.608,34.171 144.335,34.165 144.055,34.14 143.781,34.1 143.5,34.032 
			143.23,33.951 142.966,33.841 142.719,33.705 142.484,33.543 142.265,33.353 142.077,33.126 141.919,32.871 141.785,32.574 
			141.69,32.247 141.628,31.874 141.609,31.465 141.639,31.007 141.639,31.007 141.662,30.83 141.694,30.623 141.741,30.405 
			141.801,30.173 141.884,29.938 141.984,29.695 142.112,29.45 142.265,29.217 142.444,28.995 142.663,28.783 142.906,28.594 
			143.184,28.429 143.506,28.286 143.87,28.189 144.27,28.124 144.72,28.099 144.72,28.099 144.936,28.104 145.165,28.128 
			145.391,28.164 145.618,28.222 145.844,28.307 146.058,28.406 146.26,28.539 146.442,28.693 146.609,28.885 146.748,29.107 
			146.861,29.361 146.938,29.657 146.982,29.99 146.986,30.366 146.949,30.79 146.864,31.258 146.838,31.597 142.784,31.597 
			143.041,30.503 145.476,30.503 145.476,30.503 145.487,30.363 145.481,30.231 145.471,30.107 145.448,29.997 145.409,29.888 
			145.371,29.794 145.315,29.714 145.258,29.635 145.191,29.568 145.119,29.511 145.036,29.461 144.952,29.418 144.865,29.384 
			144.775,29.361 144.68,29.345 144.583,29.335 144.583,29.335 144.474,29.339 144.376,29.357 144.282,29.381 144.187,29.413 
			144.091,29.456 144.006,29.505 143.922,29.568 143.854,29.635 143.781,29.714 143.715,29.794 143.652,29.885 143.6,29.981 
			143.55,30.078 143.51,30.188 143.481,30.303 143.458,30.418 143.234,31.568 		"/>
		<polygon fill-rule="evenodd" clip-rule="evenodd" fill="#FFFFFF" points="156.497,28.552 156.42,28.513 156.35,28.479 
			156.272,28.438 156.189,28.399 156.105,28.367 156.013,28.331 155.917,28.299 155.817,28.268 155.712,28.238 155.606,28.218 
			155.488,28.196 155.372,28.178 155.243,28.164 155.116,28.156 154.983,28.156 154.843,28.156 154.707,28.156 154.56,28.164 
			154.411,28.186 154.252,28.211 154.1,28.257 153.945,28.317 153.788,28.395 153.631,28.494 153.482,28.616 153.337,28.762 
			153.196,28.939 153.063,29.145 152.942,29.388 152.824,29.669 152.721,29.981 152.631,30.336 152.6,30.535 152.577,30.729 
			152.565,30.926 152.569,31.113 152.588,31.301 152.626,31.481 152.675,31.645 152.736,31.813 152.819,31.965 152.92,32.108 
			153.039,32.235 153.171,32.355 153.318,32.452 153.494,32.537 153.681,32.609 153.895,32.658 153.968,32.675 154.049,32.691 
			154.15,32.704 154.261,32.715 154.383,32.725 154.509,32.725 154.65,32.725 154.788,32.715 154.932,32.695 155.079,32.67 
			155.218,32.63 155.353,32.587 155.496,32.526 155.624,32.452 155.739,32.365 155.849,32.263 155.601,33.749 155.569,33.777 
			155.534,33.809 155.488,33.849 155.438,33.882 155.377,33.926 155.298,33.967 155.21,34.004 155.11,34.036 154.983,34.076 
			154.839,34.104 154.672,34.127 154.479,34.148 154.261,34.16 154.011,34.165 153.728,34.16 153.415,34.143 153.16,34.115 
			152.905,34.059 152.647,33.979 152.394,33.862 152.148,33.73 151.915,33.565 151.693,33.371 151.487,33.148 151.302,32.9 
			151.147,32.619 151.015,32.308 150.915,31.97 150.848,31.597 150.822,31.201 150.834,30.769 150.897,30.306 150.942,30.078 
			150.992,29.854 151.047,29.64 151.102,29.436 151.163,29.239 151.234,29.047 151.307,28.86 151.384,28.689 151.471,28.517 
			151.552,28.354 151.646,28.2 151.746,28.056 151.848,27.916 151.957,27.781 152.069,27.66 152.186,27.543 152.312,27.434 
			152.444,27.326 152.577,27.23 152.716,27.144 152.864,27.06 153.016,26.988 153.171,26.921 153.331,26.859 153.505,26.804 
			153.676,26.761 153.854,26.719 154.044,26.688 154.232,26.658 154.431,26.639 154.633,26.628 154.843,26.62 155.024,26.628 
			155.195,26.639 155.36,26.654 155.53,26.677 155.683,26.699 155.833,26.73 155.978,26.761 156.112,26.791 156.238,26.825 
			156.35,26.859 156.455,26.894 156.545,26.925 156.625,26.954 156.69,26.977 156.742,26.998 156.776,27.01 156.497,28.552 
			156.497,28.552 		"/>
		<polyline fill="none" stroke="#FFFFFF" stroke-width="0.216" stroke-miterlimit="2.6131" points="156.497,28.552 156.497,28.552 
			156.42,28.513 156.35,28.479 156.272,28.438 156.189,28.399 156.105,28.367 156.013,28.331 155.917,28.299 155.817,28.268 
			155.712,28.238 155.606,28.218 155.488,28.196 155.372,28.178 155.243,28.164 155.116,28.156 154.983,28.156 154.843,28.156 
			154.843,28.156 154.707,28.156 154.56,28.164 154.411,28.186 154.252,28.211 154.1,28.257 153.945,28.317 153.788,28.395 
			153.631,28.494 153.482,28.616 153.337,28.762 153.196,28.939 153.063,29.145 152.942,29.388 152.824,29.669 152.721,29.981 
			152.631,30.336 152.631,30.336 152.6,30.535 152.577,30.729 152.565,30.926 152.569,31.113 152.588,31.301 152.626,31.481 
			152.675,31.645 152.736,31.813 152.819,31.965 152.92,32.108 153.039,32.235 153.171,32.355 153.318,32.452 153.494,32.537 
			153.681,32.609 153.895,32.658 153.895,32.658 153.968,32.675 154.049,32.691 154.15,32.704 154.261,32.715 154.383,32.725 
			154.509,32.725 154.65,32.725 154.788,32.715 154.932,32.695 155.079,32.67 155.218,32.63 155.353,32.587 155.496,32.526 
			155.624,32.452 155.739,32.365 155.849,32.263 155.601,33.749 155.601,33.749 155.569,33.777 155.534,33.809 155.488,33.849 
			155.438,33.882 155.377,33.926 155.298,33.967 155.21,34.004 155.11,34.036 154.983,34.076 154.839,34.104 154.672,34.127 
			154.479,34.148 154.261,34.16 154.011,34.165 153.728,34.16 153.415,34.143 153.415,34.143 153.16,34.115 152.905,34.059 
			152.647,33.979 152.394,33.862 152.148,33.73 151.915,33.565 151.693,33.371 151.487,33.148 151.302,32.9 151.147,32.619 
			151.015,32.308 150.915,31.97 150.848,31.597 150.822,31.201 150.834,30.769 150.897,30.306 150.897,30.306 150.942,30.078 
			150.992,29.854 151.047,29.64 151.102,29.436 151.163,29.239 151.234,29.047 151.307,28.86 151.384,28.689 151.471,28.517 
			151.552,28.354 151.646,28.2 151.746,28.056 151.848,27.916 151.957,27.781 152.069,27.66 152.186,27.543 152.312,27.434 
			152.444,27.326 152.577,27.23 152.716,27.144 152.864,27.06 153.016,26.988 153.171,26.921 153.331,26.859 153.505,26.804 
			153.676,26.761 153.854,26.719 154.044,26.688 154.232,26.658 154.431,26.639 154.633,26.628 154.843,26.62 154.843,26.62 
			155.024,26.628 155.195,26.639 155.36,26.654 155.53,26.677 155.683,26.699 155.833,26.73 155.978,26.761 156.112,26.791 
			156.238,26.825 156.35,26.859 156.455,26.894 156.545,26.925 156.625,26.954 156.69,26.977 156.742,26.998 156.776,27.01 
			156.497,28.552 		"/>
		<polygon fill-rule="evenodd" clip-rule="evenodd" fill="#FFFFFF" points="170.183,34.171 168.644,34.171 168.754,33.554 
			168.754,33.499 168.663,33.61 168.572,33.709 168.479,33.797 168.378,33.874 168.276,33.951 168.176,34.011 168.078,34.059 
			167.97,34.109 167.866,34.148 167.76,34.176 167.654,34.204 167.541,34.221 167.43,34.236 167.325,34.248 167.213,34.254 
			167.101,34.254 166.815,34.231 166.548,34.171 166.306,34.076 166.08,33.951 165.879,33.786 165.703,33.6 165.546,33.394 
			165.414,33.16 165.304,32.909 165.212,32.647 165.151,32.377 165.106,32.091 165.091,31.808 165.095,31.519 165.124,31.236 
			165.172,30.953 165.259,30.623 165.36,30.313 165.475,30.029 165.612,29.764 165.76,29.511 165.925,29.289 166.097,29.09 
			166.281,28.904 166.475,28.746 166.681,28.606 166.893,28.485 167.101,28.39 167.325,28.31 167.547,28.261 167.773,28.226 
			167.998,28.218 168.159,28.222 168.313,28.238 168.46,28.268 168.595,28.307 168.72,28.351 168.833,28.399 168.944,28.46 
			169.045,28.521 169.132,28.586 169.216,28.661 169.289,28.734 169.355,28.808 169.412,28.879 169.462,28.951 169.507,29.017 
			169.541,29.084 169.541,29.084 169.929,26.899 171.442,26.899 170.183,34.171 170.183,34.171 		"/>
		<polyline fill="none" stroke="#FFFFFF" stroke-width="0.216" stroke-miterlimit="2.6131" points="170.183,34.171 168.644,34.171 
			168.754,33.554 168.754,33.499 168.754,33.499 168.663,33.61 168.572,33.709 168.479,33.797 168.378,33.874 168.276,33.951 
			168.176,34.011 168.078,34.059 167.97,34.109 167.866,34.148 167.76,34.176 167.654,34.204 167.541,34.221 167.43,34.236 
			167.325,34.248 167.213,34.254 167.101,34.254 167.101,34.254 166.815,34.231 166.548,34.171 166.306,34.076 166.08,33.951 
			165.879,33.786 165.703,33.6 165.546,33.394 165.414,33.16 165.304,32.909 165.212,32.647 165.151,32.377 165.106,32.091 
			165.091,31.808 165.095,31.519 165.124,31.236 165.172,30.953 165.172,30.953 165.259,30.623 165.36,30.313 165.475,30.029 
			165.612,29.764 165.76,29.511 165.925,29.289 166.097,29.09 166.281,28.904 166.475,28.746 166.681,28.606 166.893,28.485 
			167.101,28.39 167.325,28.31 167.547,28.261 167.773,28.226 167.998,28.218 167.998,28.218 168.159,28.222 168.313,28.238 
			168.46,28.268 168.595,28.307 168.72,28.351 168.833,28.399 168.944,28.46 169.045,28.521 169.132,28.586 169.216,28.661 
			169.289,28.734 169.355,28.808 169.412,28.879 169.462,28.951 169.507,29.017 169.541,29.084 169.541,29.084 169.929,26.899 
			171.442,26.899 170.183,34.171 		"/>
		<polygon fill-rule="evenodd" clip-rule="evenodd" fill="#FBB230" points="167.665,32.824 167.823,32.813 167.966,32.781 
			168.099,32.742 168.227,32.68 168.344,32.614 168.454,32.531 168.559,32.438 168.656,32.336 168.737,32.223 168.817,32.102 
			168.889,31.976 168.95,31.844 169.003,31.703 169.048,31.557 169.088,31.408 169.116,31.258 169.144,31.102 169.161,30.942 
			169.161,30.79 169.155,30.635 169.137,30.49 169.116,30.353 169.077,30.221 169.033,30.09 168.977,29.981 168.911,29.873 
			168.84,29.782 168.754,29.707 168.659,29.64 168.559,29.594 168.454,29.568 168.337,29.557 168.188,29.568 168.05,29.589 
			167.922,29.635 167.792,29.691 167.68,29.764 167.57,29.852 167.476,29.946 167.383,30.051 167.299,30.173 167.219,30.303 
			167.146,30.435 167.086,30.579 167.032,30.729 166.988,30.879 166.943,31.04 166.908,31.201 166.881,31.447 166.893,31.715 
			166.932,31.986 167.003,32.247 167.113,32.477 167.259,32.658 167.441,32.781 167.665,32.824 167.665,32.824 		"/>
		<polygon fill-rule="evenodd" clip-rule="evenodd" fill="#FFFFFF" points="133.521,32.937 133.3,34.171 131.896,34.171 
			131.936,33.942 131.966,33.736 131.986,33.583 132.01,33.499 131.932,33.588 131.843,33.676 131.737,33.761 131.619,33.837 
			131.488,33.917 131.347,33.983 131.203,34.048 131.054,34.104 130.891,34.153 130.733,34.193 130.572,34.226 130.402,34.248 
			130.24,34.262 130.08,34.267 129.925,34.248 129.772,34.226 129.579,34.176 129.401,34.121 129.247,34.048 129.109,33.967 
			128.987,33.874 128.875,33.777 128.783,33.669 128.707,33.559 128.639,33.443 128.583,33.317 128.541,33.196 128.506,33.075 
			128.483,32.948 128.468,32.817 128.457,32.695 128.457,32.574 128.472,32.358 128.506,32.153 128.562,31.957 128.635,31.767 
			128.723,31.592 128.823,31.431 128.941,31.273 129.074,31.136 129.213,31.007 129.368,30.891 129.528,30.786 129.694,30.696 
			129.874,30.62 130.057,30.557 130.248,30.508 130.442,30.474 130.453,30.474 130.481,30.468 130.518,30.461 130.579,30.457 
			130.646,30.446 130.724,30.441 130.808,30.43 130.902,30.418 130.999,30.405 131.094,30.394 131.192,30.39 131.282,30.378 
			131.37,30.374 131.451,30.366 131.532,30.363 131.593,30.363 131.721,30.363 131.856,30.366 131.977,30.374 132.1,30.374 
			132.197,30.378 132.277,30.382 132.332,30.39 132.349,30.39 132.36,30.353 132.392,30.253 132.421,30.134 132.431,30.029 
			132.41,29.908 132.36,29.794 132.295,29.695 132.204,29.611 132.1,29.539 131.981,29.49 131.848,29.456 131.703,29.444 
			131.547,29.439 131.379,29.436 131.207,29.436 131.031,29.439 130.848,29.45 130.67,29.468 130.492,29.485 130.32,29.505 
			130.152,29.528 129.993,29.557 129.847,29.582 129.714,29.611 129.589,29.646 129.494,29.68 129.412,29.718 129.351,29.752 
			129.747,28.411 129.87,28.359 129.993,28.317 130.125,28.278 130.259,28.25 130.392,28.222 130.538,28.2 130.682,28.178 
			130.83,28.164 130.987,28.156 131.146,28.149 131.314,28.142 131.488,28.142 131.665,28.142 131.848,28.142 132.043,28.149 
			132.236,28.156 132.392,28.164 132.56,28.196 132.734,28.234 132.91,28.282 133.082,28.351 133.25,28.429 133.417,28.521 
			133.572,28.629 133.711,28.75 133.834,28.885 133.945,29.032 134.028,29.202 134.086,29.381 134.117,29.568 134.117,29.778 
			134.086,30.001 133.521,32.937 133.521,32.937 		"/>
		<polyline fill="none" stroke="#FFFFFF" stroke-width="0.216" stroke-miterlimit="2.6131" points="133.521,32.937 133.3,34.171 
			131.896,34.171 131.896,34.171 131.936,33.942 131.966,33.736 131.986,33.583 132.01,33.499 132.01,33.499 131.932,33.588 
			131.843,33.676 131.737,33.761 131.619,33.837 131.488,33.917 131.347,33.983 131.203,34.048 131.054,34.104 130.891,34.153 
			130.733,34.193 130.572,34.226 130.402,34.248 130.24,34.262 130.08,34.267 129.925,34.248 129.772,34.226 129.772,34.226 
			129.579,34.176 129.401,34.121 129.247,34.048 129.109,33.967 128.987,33.874 128.875,33.777 128.783,33.669 128.707,33.559 
			128.639,33.443 128.583,33.317 128.541,33.196 128.506,33.075 128.483,32.948 128.468,32.817 128.457,32.695 128.457,32.574 
			128.457,32.574 128.472,32.358 128.506,32.153 128.562,31.957 128.635,31.767 128.723,31.592 128.823,31.431 128.941,31.273 
			129.074,31.136 129.213,31.007 129.368,30.891 129.528,30.786 129.694,30.696 129.874,30.62 130.057,30.557 130.248,30.508 
			130.442,30.474 130.442,30.474 130.453,30.474 130.481,30.468 130.518,30.461 130.579,30.457 130.646,30.446 130.724,30.441 
			130.808,30.43 130.902,30.418 130.999,30.405 131.094,30.394 131.192,30.39 131.282,30.378 131.37,30.374 131.451,30.366 
			131.532,30.363 131.593,30.363 131.593,30.363 131.721,30.363 131.856,30.366 131.977,30.374 132.1,30.374 132.197,30.378 
			132.277,30.382 132.332,30.39 132.349,30.39 132.349,30.39 132.36,30.353 132.392,30.253 132.421,30.134 132.431,30.029 
			132.431,30.029 132.41,29.908 132.36,29.794 132.295,29.695 132.204,29.611 132.1,29.539 131.981,29.49 131.848,29.456 
			131.703,29.444 131.703,29.444 131.547,29.439 131.379,29.436 131.207,29.436 131.031,29.439 130.848,29.45 130.67,29.468 
			130.492,29.485 130.32,29.505 130.152,29.528 129.993,29.557 129.847,29.582 129.714,29.611 129.589,29.646 129.494,29.68 
			129.412,29.718 129.351,29.752 129.747,28.411 129.747,28.411 129.87,28.359 129.993,28.317 130.125,28.278 130.259,28.25 
			130.392,28.222 130.538,28.2 130.682,28.178 130.83,28.164 130.987,28.156 131.146,28.149 131.314,28.142 131.488,28.142 
			131.665,28.142 131.848,28.142 132.043,28.149 132.236,28.156 132.236,28.156 132.392,28.164 132.56,28.196 132.734,28.234 
			132.91,28.282 133.082,28.351 133.25,28.429 133.417,28.521 133.572,28.629 133.711,28.75 133.834,28.885 133.945,29.032 
			134.028,29.202 134.086,29.381 134.117,29.568 134.117,29.778 134.086,30.001 133.521,32.937 		"/>
		<polygon fill-rule="evenodd" clip-rule="evenodd" fill="#EB2230" points="132.184,31.485 132.176,31.458 132.153,31.431 
			132.123,31.412 132.066,31.404 132.004,31.392 131.932,31.384 131.848,31.384 131.764,31.384 131.675,31.392 131.582,31.404 
			131.493,31.412 131.403,31.423 131.32,31.435 131.242,31.452 131.175,31.471 131.114,31.485 131.074,31.496 131.031,31.513 
			130.97,31.536 130.907,31.563 130.836,31.597 130.764,31.634 130.686,31.675 130.614,31.719 130.538,31.775 130.464,31.83 
			130.396,31.896 130.335,31.965 130.28,32.036 130.24,32.113 130.205,32.201 130.19,32.291 130.186,32.481 130.213,32.63 
			130.269,32.742 130.342,32.824 130.425,32.882 130.518,32.914 130.607,32.932 130.697,32.937 130.866,32.932 131.016,32.914 
			131.16,32.893 131.287,32.86 131.398,32.817 131.503,32.771 131.597,32.719 131.682,32.658 131.755,32.604 131.821,32.537 
			131.876,32.477 131.92,32.409 131.957,32.344 131.992,32.275 132.023,32.214 132.037,32.153 132.082,31.992 132.123,31.808 
			132.153,31.629 132.184,31.485 132.184,31.485 		"/>
		<polygon fill-rule="evenodd" clip-rule="evenodd" fill="#FFFFFF" points="121.823,34.171 120.313,34.171 121.572,26.871 
			124.205,26.871 124.453,31.201 126.271,26.871 129.016,26.871 127.729,34.171 126.216,34.171 127.172,28.715 127.11,28.715 
			124.849,34.171 123.141,34.171 123.131,33.942 123.093,33.336 123.042,32.477 122.984,31.485 122.93,30.49 122.877,29.617 
			122.841,28.984 122.829,28.715 122.813,28.715 122.782,28.715 122.747,28.715 122.747,28.715 121.823,34.171 121.823,34.171 		"/>
		<polyline fill="none" stroke="#FFFFFF" stroke-width="0.216" stroke-miterlimit="2.6131" points="121.823,34.171 120.313,34.171 
			121.572,26.871 124.205,26.871 124.453,31.201 126.271,26.871 129.016,26.871 127.729,34.171 126.216,34.171 127.172,28.715 
			127.11,28.715 124.849,34.171 123.141,34.171 123.141,34.171 123.131,33.942 123.093,33.336 123.042,32.477 122.984,31.485 
			122.93,30.49 122.877,29.617 122.841,28.984 122.829,28.715 122.829,28.715 122.813,28.715 122.782,28.715 122.747,28.715 
			122.747,28.715 121.823,34.171 		"/>
		<polygon fill-rule="evenodd" clip-rule="evenodd" fill="#FFFFFF" points="161.117,32.937 160.888,34.171 159.491,34.171 
			159.503,33.942 159.508,33.741 159.508,33.595 159.52,33.527 159.446,33.61 159.363,33.692 159.264,33.771 159.154,33.849 
			159.034,33.922 158.901,33.988 158.764,34.055 158.626,34.109 158.473,34.153 158.319,34.197 158.162,34.226 158.009,34.248 
			157.846,34.262 157.69,34.267 157.54,34.248 157.391,34.226 157.192,34.176 157.012,34.121 156.857,34.048 156.712,33.967 
			156.588,33.874 156.485,33.777 156.394,33.669 156.317,33.559 156.25,33.443 156.201,33.317 156.156,33.196 156.128,33.075 
			156.105,32.948 156.09,32.817 156.079,32.695 156.079,32.574 156.09,32.358 156.125,32.153 156.174,31.957 156.246,31.767 
			156.328,31.592 156.436,31.431 156.551,31.273 156.68,31.136 156.825,31.007 156.972,30.891 157.134,30.786 157.306,30.696 
			157.479,30.62 157.664,30.557 157.846,30.508 158.036,30.474 158.048,30.474 158.076,30.468 158.114,30.461 158.171,30.457 
			158.241,30.446 158.319,30.441 158.401,30.43 158.49,30.418 158.586,30.405 158.685,30.394 158.78,30.39 158.875,30.378 
			158.964,30.374 159.042,30.366 159.12,30.363 159.18,30.363 159.313,30.363 159.446,30.366 159.576,30.374 159.699,30.374 
			159.803,30.378 159.891,30.382 159.942,30.39 159.963,30.39 159.976,30.353 159.993,30.253 160.008,30.134 160.019,30.029 
			159.996,29.908 159.954,29.794 159.881,29.695 159.798,29.611 159.699,29.539 159.58,29.49 159.458,29.456 159.324,29.444 
			159.169,29.439 159.002,29.436 158.829,29.436 158.653,29.439 158.466,29.45 158.29,29.468 158.114,29.485 157.941,29.505 
			157.774,29.528 157.615,29.557 157.468,29.582 157.335,29.611 157.212,29.646 157.112,29.68 157.036,29.718 156.972,29.752 
			157.363,28.411 157.483,28.359 157.615,28.317 157.74,28.278 157.873,28.25 158.013,28.222 158.151,28.2 158.296,28.178 
			158.445,28.164 158.602,28.156 158.764,28.149 158.925,28.142 159.097,28.142 159.269,28.142 159.446,28.142 159.637,28.149 
			159.826,28.156 159.982,28.164 160.148,28.196 160.319,28.234 160.497,28.282 160.67,28.351 160.844,28.429 161.008,28.521 
			161.166,28.629 161.307,28.75 161.433,28.885 161.542,29.032 161.626,29.202 161.688,29.381 161.728,29.568 161.728,29.778 
			161.699,30.001 161.117,32.937 161.117,32.937 		"/>
		<polygon fill-rule="evenodd" clip-rule="evenodd" fill="#FFFFFF" points="160.888,34.209 160.92,34.176 161.151,32.942 
			161.08,32.932 160.855,34.165 160.888,34.132 160.888,34.209 160.916,34.204 160.92,34.176 160.888,34.209 160.888,34.209 		"/>
		<polygon fill-rule="evenodd" clip-rule="evenodd" fill="#FFFFFF" points="159.458,34.171 159.491,34.209 160.888,34.209 
			160.888,34.132 159.491,34.132 159.526,34.171 159.458,34.171 159.454,34.209 159.491,34.209 159.458,34.171 159.458,34.171 		"/>
		<polygon fill-rule="evenodd" clip-rule="evenodd" fill="#FFFFFF" points="159.548,33.548 159.498,33.505 159.475,33.595 
			159.469,33.741 159.469,33.942 159.458,34.171 159.526,34.171 159.539,33.942 159.548,33.741 159.542,33.595 159.542,33.548 
			159.491,33.505 159.548,33.548 159.548,33.548 		"/>
		<polygon fill-rule="evenodd" clip-rule="evenodd" fill="#FFFFFF" points="157.384,34.262 157.384,34.262 157.54,34.283 
			157.69,34.298 157.846,34.294 158.009,34.283 158.171,34.262 158.327,34.231 158.477,34.188 158.635,34.143 158.774,34.088 
			158.919,34.021 159.051,33.956 159.169,33.874 159.285,33.797 159.385,33.722 159.475,33.631 159.548,33.548 159.491,33.505 
			159.419,33.588 159.341,33.664 159.241,33.741 159.136,33.821 159.019,33.888 158.886,33.956 158.753,34.021 158.615,34.076 
			158.466,34.121 158.315,34.165 158.158,34.193 158.009,34.214 157.846,34.226 157.69,34.231 157.54,34.214 157.395,34.193 
			157.395,34.193 157.384,34.262 157.384,34.262 		"/>
		<polygon fill-rule="evenodd" clip-rule="evenodd" fill="#FFFFFF" points="156.041,32.574 156.041,32.574 156.045,32.695 
			156.055,32.817 156.071,32.954 156.094,33.082 156.125,33.204 156.167,33.33 156.217,33.459 156.289,33.577 156.366,33.692 
			156.455,33.797 156.568,33.905 156.696,33.995 156.84,34.082 157.001,34.153 157.185,34.209 157.384,34.262 157.395,34.193 
			157.197,34.143 157.023,34.088 156.872,34.018 156.729,33.937 156.612,33.849 156.512,33.753 156.42,33.648 156.345,33.543 
			156.284,33.427 156.234,33.309 156.189,33.192 156.162,33.069 156.14,32.942 156.125,32.817 156.112,32.695 156.116,32.574 
			156.116,32.574 156.041,32.574 156.041,32.574 		"/>
		<polygon fill-rule="evenodd" clip-rule="evenodd" fill="#FFFFFF" points="158.036,30.441 158.036,30.441 157.842,30.474 
			157.652,30.523 157.468,30.584 157.289,30.661 157.12,30.75 156.951,30.865 156.801,30.979 156.657,31.113 156.523,31.251 
			156.405,31.408 156.295,31.573 156.212,31.76 156.14,31.947 156.09,32.147 156.055,32.358 156.041,32.574 156.116,32.574 
			156.125,32.358 156.156,32.159 156.206,31.97 156.277,31.779 156.361,31.605 156.462,31.452 156.58,31.297 156.701,31.158 
			156.843,31.035 156.999,30.918 157.151,30.818 157.323,30.729 157.488,30.651 157.675,30.592 157.85,30.54 158.036,30.508 
			158.036,30.508 158.036,30.441 158.036,30.441 		"/>
		<polygon fill-rule="evenodd" clip-rule="evenodd" fill="#FFFFFF" points="159.18,30.321 159.18,30.321 159.12,30.321 
			159.042,30.336 158.964,30.34 158.875,30.345 158.78,30.356 158.685,30.363 158.586,30.374 158.49,30.382 158.401,30.394 
			158.319,30.405 158.241,30.413 158.171,30.425 158.114,30.43 158.07,30.435 158.048,30.441 158.036,30.441 158.036,30.508 
			158.048,30.508 158.082,30.503 158.114,30.496 158.171,30.49 158.241,30.479 158.319,30.474 158.401,30.461 158.49,30.45 
			158.586,30.441 158.685,30.43 158.78,30.425 158.875,30.413 158.964,30.405 159.042,30.4 159.12,30.4 159.18,30.4 159.18,30.4 
			159.18,30.321 159.18,30.321 		"/>
		<polygon fill-rule="evenodd" clip-rule="evenodd" fill="#FFFFFF" points="159.93,30.382 159.963,30.356 159.942,30.356 
			159.891,30.353 159.803,30.345 159.699,30.336 159.576,30.336 159.446,30.336 159.313,30.321 159.18,30.321 159.18,30.4 
			159.313,30.4 159.446,30.4 159.576,30.413 159.699,30.413 159.803,30.413 159.891,30.418 159.942,30.425 159.963,30.425 
			159.996,30.394 159.963,30.425 159.993,30.43 159.996,30.394 159.93,30.382 159.93,30.382 		"/>
		<polygon fill-rule="evenodd" clip-rule="evenodd" fill="#FFFFFF" points="159.987,30.029 159.982,30.029 159.976,30.134 
			159.958,30.245 159.942,30.345 159.93,30.382 159.996,30.394 160.008,30.356 160.024,30.257 160.043,30.134 160.059,30.029 
			160.052,30.029 159.987,30.029 159.987,30.029 		"/>
		<polygon fill-rule="evenodd" clip-rule="evenodd" fill="#FFFFFF" points="159.324,29.479 159.324,29.485 159.454,29.49 
			159.57,29.521 159.681,29.573 159.773,29.64 159.854,29.718 159.919,29.812 159.963,29.914 159.987,30.029 160.052,30.029 
			160.032,29.899 159.987,29.778 159.908,29.673 159.82,29.582 159.713,29.505 159.591,29.456 159.462,29.425 159.324,29.407 
			159.324,29.413 159.324,29.479 159.324,29.479 		"/>
		<polygon fill-rule="evenodd" clip-rule="evenodd" fill="#FFFFFF" points="156.939,29.744 156.999,29.778 157.053,29.752 
			157.124,29.714 157.217,29.68 157.339,29.646 157.472,29.617 157.619,29.589 157.779,29.562 157.941,29.539 158.114,29.517 
			158.29,29.5 158.466,29.485 158.653,29.473 158.829,29.473 159.002,29.473 159.169,29.473 159.324,29.479 159.324,29.413 
			159.169,29.407 159.002,29.396 158.829,29.396 158.653,29.407 158.466,29.418 158.29,29.436 158.114,29.45 157.941,29.473 
			157.768,29.494 157.605,29.521 157.46,29.551 157.328,29.578 157.208,29.611 157.104,29.646 157.019,29.684 156.951,29.727 
			157.008,29.756 156.939,29.744 156.939,29.744 		"/>
		<polygon fill-rule="evenodd" clip-rule="evenodd" fill="#FFFFFF" points="157.35,28.378 157.328,28.406 156.939,29.744 
			157.008,29.756 157.395,28.415 157.375,28.443 157.35,28.378 157.335,28.383 157.328,28.406 157.35,28.378 157.35,28.378 		"/>
		<polygon fill-rule="evenodd" clip-rule="evenodd" fill="#FFFFFF" points="159.826,28.124 159.826,28.124 159.637,28.112 
			159.446,28.104 159.269,28.104 159.097,28.104 158.925,28.104 158.764,28.116 158.602,28.124 158.445,28.135 158.296,28.142 
			158.147,28.164 158.009,28.189 157.869,28.218 157.734,28.246 157.602,28.282 157.472,28.329 157.35,28.378 157.375,28.443 
			157.496,28.395 157.626,28.351 157.746,28.31 157.88,28.282 158.017,28.257 158.158,28.234 158.296,28.211 158.445,28.2 
			158.602,28.189 158.764,28.186 158.925,28.186 159.097,28.186 159.269,28.186 159.446,28.186 159.637,28.189 159.826,28.189 
			159.826,28.189 159.826,28.124 159.826,28.124 		"/>
		<polygon fill-rule="evenodd" clip-rule="evenodd" fill="#FFFFFF" points="161.734,30.007 161.734,30.007 161.762,29.778 
			161.762,29.568 161.723,29.373 161.662,29.19 161.572,29.017 161.461,28.86 161.324,28.722 161.189,28.6 161.028,28.494 
			160.86,28.395 160.682,28.317 160.508,28.25 160.326,28.2 160.153,28.16 159.982,28.135 159.826,28.124 159.826,28.189 
			159.982,28.2 160.143,28.226 160.315,28.268 160.487,28.317 160.659,28.383 160.826,28.46 160.993,28.552 161.142,28.654 
			161.284,28.776 161.404,28.904 161.514,29.051 161.594,29.213 161.658,29.384 161.695,29.568 161.695,29.778 161.666,29.997 
			161.666,29.997 161.734,30.007 161.734,30.007 		"/>
		<polygon fill-rule="evenodd" clip-rule="evenodd" fill="#FFFFFF" points="161.151,32.942 161.151,32.942 161.734,30.007 
			161.666,29.997 161.08,32.932 161.08,32.932 161.151,32.942 161.151,32.942 		"/>
		<polygon fill-rule="evenodd" clip-rule="evenodd" fill="#FBB230" points="159.77,31.485 159.76,31.452 159.737,31.423 
			159.699,31.408 159.641,31.392 159.58,31.384 159.508,31.38 159.423,31.38 159.341,31.384 159.252,31.396 159.165,31.408 
			159.078,31.419 158.991,31.431 158.908,31.447 158.836,31.458 158.764,31.476 158.708,31.485 158.671,31.491 158.626,31.508 
			158.571,31.525 158.509,31.548 158.434,31.577 158.369,31.612 158.29,31.653 158.219,31.703 158.147,31.753 158.076,31.813 
			158.013,31.874 157.952,31.947 157.903,32.025 157.861,32.108 157.831,32.196 157.812,32.291 157.808,32.481 157.834,32.63 
			157.88,32.742 157.945,32.824 158.029,32.882 158.125,32.914 158.219,32.932 158.315,32.937 158.477,32.932 158.635,32.914 
			158.78,32.888 158.908,32.846 159.03,32.803 159.136,32.752 159.237,32.695 159.324,32.63 159.404,32.569 159.469,32.496 
			159.53,32.43 159.58,32.358 159.621,32.291 159.647,32.223 159.67,32.159 159.688,32.097 159.709,31.94 159.737,31.779 
			159.76,31.623 159.77,31.485 159.77,31.485 		"/>
		<polygon fill-rule="evenodd" clip-rule="evenodd" fill="#FFFFFF" points="171.223,33.411 171.233,33.28 171.277,33.131 
			171.358,32.997 171.453,32.882 171.567,32.787 171.7,32.719 171.845,32.675 172.002,32.658 172.158,32.675 172.302,32.719 
			172.438,32.787 172.553,32.882 172.646,32.997 172.723,33.131 172.77,33.28 172.781,33.411 172.613,33.411 172.608,33.309 
			172.577,33.187 172.521,33.075 172.446,32.981 172.355,32.903 172.253,32.846 172.131,32.809 172.002,32.796 171.875,32.809 
			171.751,32.846 171.643,32.903 171.556,32.981 171.485,33.075 171.431,33.187 171.398,33.309 171.385,33.411 171.223,33.411 
			171.223,33.411 		"/>
		<polygon fill-rule="evenodd" clip-rule="evenodd" fill="#FFFFFF" points="171.724,33.411 171.724,33.075 172.029,33.075 
			172.097,33.082 172.158,33.093 172.201,33.108 172.242,33.131 172.269,33.165 172.291,33.196 172.302,33.236 172.306,33.275 
			172.302,33.325 172.291,33.365 172.274,33.401 172.262,33.411 172.029,33.411 172.051,33.405 172.09,33.401 172.124,33.391 
			172.154,33.377 172.173,33.357 172.184,33.341 172.196,33.314 172.196,33.275 172.189,33.248 172.181,33.226 172.162,33.215 
			172.148,33.204 172.118,33.196 172.09,33.192 172.062,33.192 172.029,33.192 171.864,33.192 171.864,33.411 171.724,33.411 
			171.724,33.411 		"/>
		<polygon fill-rule="evenodd" clip-rule="evenodd" fill="#FFFFFF" points="171.223,33.411 171.219,33.443 171.233,33.604 
			171.277,33.753 171.358,33.888 171.453,34 171.567,34.093 171.7,34.165 171.845,34.209 172.002,34.226 172.158,34.209 
			172.302,34.165 172.438,34.093 172.553,34 172.646,33.888 172.723,33.753 172.77,33.604 172.786,33.443 172.781,33.411 
			172.613,33.411 172.619,33.443 172.608,33.577 172.577,33.698 172.521,33.805 172.446,33.899 172.355,33.979 172.253,34.036 
			172.131,34.076 172.002,34.088 171.875,34.076 171.751,34.036 171.643,33.979 171.556,33.899 171.485,33.805 171.431,33.698 
			171.398,33.577 171.385,33.443 171.385,33.411 171.223,33.411 171.223,33.411 		"/>
		<polygon fill-rule="evenodd" clip-rule="evenodd" fill="#FFFFFF" points="171.724,33.411 171.724,33.749 171.864,33.749 
			171.864,33.471 172.002,33.471 172.169,33.749 172.279,33.749 172.112,33.471 172.154,33.471 172.189,33.459 172.225,33.447 
			172.253,33.427 172.262,33.411 172.029,33.411 172.002,33.415 171.864,33.415 171.864,33.411 171.724,33.411 171.724,33.411 		"/>
		<path fill="none" stroke="#FFFFFF" stroke-width="0.216" stroke-miterlimit="2.6131" d="M171.219,33.443L171.219,33.443
			l0.014-0.163l0.044-0.149l0.081-0.134l0.095-0.115l0.114-0.095l0.133-0.068l0.145-0.044l0.157-0.017l0,0l0.155,0.017l0.144,0.044
			l0.136,0.068l0.115,0.095l0.093,0.115l0.077,0.134l0.047,0.149l0.016,0.163l0,0l-0.016,0.16l-0.047,0.149l-0.077,0.135L172.553,34
			l-0.115,0.093l-0.136,0.072l-0.144,0.044l-0.155,0.017l0,0l-0.157-0.017l-0.145-0.044l-0.133-0.072L171.453,34l-0.095-0.112
			l-0.081-0.135l-0.044-0.149L171.219,33.443 M171.864,33.749h-0.14v-0.674h0.305l0,0l0.068,0.007l0.061,0.011l0.043,0.016
			l0.041,0.022l0.027,0.034l0.021,0.031l0.011,0.04l0.004,0.039l0,0l-0.004,0.05l-0.011,0.04l-0.016,0.036l-0.021,0.025
			l-0.028,0.021l-0.035,0.012l-0.036,0.012h-0.042l0.167,0.278h-0.11l-0.167-0.278h-0.138V33.749 M172.002,33.415L172.002,33.415
			l0.049-0.01l0.039-0.004l0.034-0.011l0.03-0.014l0.019-0.02l0.011-0.017l0.012-0.026v-0.039l0,0l-0.006-0.027l-0.009-0.022
			l-0.019-0.011l-0.014-0.011l-0.03-0.008l-0.028-0.004h-0.027h-0.034h-0.165v0.223H172.002 M172.002,34.088L172.002,34.088
			l0.129-0.012l0.122-0.04l0.102-0.058l0.091-0.079l0.074-0.095l0.056-0.106l0.031-0.121l0.011-0.134l0,0l-0.011-0.135l-0.031-0.122
			l-0.056-0.111l-0.074-0.094l-0.091-0.078l-0.102-0.058l-0.122-0.037l-0.129-0.013l0,0l-0.128,0.013l-0.123,0.037l-0.109,0.058
			l-0.087,0.078l-0.071,0.094l-0.054,0.111l-0.033,0.122l-0.013,0.135l0,0l0.013,0.134l0.033,0.121l0.054,0.106l0.071,0.095
			l0.087,0.079l0.109,0.058l0.123,0.04L172.002,34.088"/>
		<polygon fill-rule="evenodd" clip-rule="evenodd" fill="#FFFFFF" points="161.531,34.171 163.1,34.171 163.1,34.171 
			163.664,31.007 163.685,30.887 163.719,30.761 163.753,30.64 163.794,30.519 163.852,30.394 163.916,30.279 163.988,30.17 
			164.081,30.062 164.179,29.969 164.291,29.877 164.419,29.794 164.561,29.729 164.725,29.673 164.901,29.63 165.095,29.594 
			165.316,29.582 165.391,29.582 165.436,29.582 165.452,29.582 165.452,29.582 165.703,28.156 165.546,28.164 165.397,28.186 
			165.259,28.211 165.124,28.25 165.003,28.295 164.886,28.351 164.775,28.411 164.67,28.479 164.568,28.557 164.473,28.633 
			164.385,28.722 164.298,28.812 164.212,28.904 164.13,29.012 164.045,29.111 163.965,29.223 164.134,28.218 162.57,28.218 
			161.531,34.171 161.531,34.171 161.531,34.171 		"/>
		<polyline fill="none" stroke="#FFFFFF" stroke-width="0.216" stroke-miterlimit="2.6131" points="161.531,34.171 163.1,34.171 
			163.1,34.171 163.664,31.007 163.664,31.007 163.685,30.887 163.719,30.761 163.753,30.64 163.794,30.519 163.852,30.394 
			163.916,30.279 163.988,30.17 164.081,30.062 164.179,29.969 164.291,29.877 164.419,29.794 164.561,29.729 164.725,29.673 
			164.901,29.63 165.095,29.594 165.316,29.582 165.316,29.582 165.391,29.582 165.436,29.582 165.452,29.582 165.452,29.582 
			165.703,28.156 165.703,28.156 165.546,28.164 165.397,28.186 165.259,28.211 165.124,28.25 165.003,28.295 164.886,28.351 
			164.775,28.411 164.67,28.479 164.568,28.557 164.473,28.633 164.385,28.722 164.298,28.812 164.212,28.904 164.13,29.012 
			164.045,29.111 163.965,29.223 164.134,28.218 162.57,28.218 161.531,34.171 161.531,34.171 		"/>
		<polygon fill-rule="evenodd" clip-rule="evenodd" fill="#FFFFFF" points="146.812,34.171 148.379,34.171 148.404,34.171 
			148.938,31.007 148.963,30.887 148.99,30.769 149.017,30.651 149.056,30.54 149.101,30.43 149.155,30.321 149.223,30.225 
			149.299,30.127 149.392,30.044 149.49,29.962 149.612,29.896 149.745,29.835 149.901,29.782 150.073,29.74 150.263,29.714 
			150.482,29.695 150.496,29.695 150.519,29.703 150.547,29.707 150.574,29.707 150.604,29.714 150.625,29.718 150.64,29.727 
			150.644,29.727 150.651,29.703 150.667,29.635 150.689,29.533 150.719,29.413 150.756,29.266 150.797,29.111 150.848,28.955 
			150.897,28.8 150.942,28.693 151,28.586 151.052,28.485 151.108,28.39 151.159,28.307 151.197,28.238 151.223,28.2 
			151.234,28.186 151.229,28.186 151.208,28.178 151.178,28.173 151.14,28.164 151.102,28.164 151.059,28.16 151.019,28.156 
			150.98,28.156 150.807,28.164 150.651,28.186 150.507,28.211 150.374,28.246 150.245,28.286 150.13,28.343 150.023,28.399 
			149.925,28.468 149.83,28.539 149.739,28.621 149.658,28.708 149.574,28.8 149.49,28.896 149.41,29 149.328,29.111 
			149.247,29.223 149.445,28.218 147.851,28.218 146.812,34.171 146.812,34.171 146.812,34.171 		"/>
		<polyline fill="none" stroke="#FFFFFF" stroke-width="0.216" stroke-miterlimit="2.6131" points="146.812,34.171 148.379,34.171 
			148.404,34.171 148.938,31.007 148.938,31.007 148.963,30.887 148.99,30.769 149.017,30.651 149.056,30.54 149.101,30.43 
			149.155,30.321 149.223,30.225 149.299,30.127 149.392,30.044 149.49,29.962 149.612,29.896 149.745,29.835 149.901,29.782 
			150.073,29.74 150.263,29.714 150.482,29.695 150.482,29.695 150.496,29.695 150.519,29.703 150.547,29.707 150.574,29.707 
			150.604,29.714 150.625,29.718 150.64,29.727 150.644,29.727 150.644,29.727 150.651,29.703 150.667,29.635 150.689,29.533 
			150.719,29.413 150.756,29.266 150.797,29.111 150.848,28.955 150.897,28.8 150.897,28.8 150.942,28.693 151,28.586 
			151.052,28.485 151.108,28.39 151.159,28.307 151.197,28.238 151.223,28.2 151.234,28.186 151.234,28.186 151.229,28.186 
			151.208,28.178 151.178,28.173 151.14,28.164 151.102,28.164 151.059,28.16 151.019,28.156 150.98,28.156 150.98,28.156 
			150.807,28.164 150.651,28.186 150.507,28.211 150.374,28.246 150.245,28.286 150.13,28.343 150.023,28.399 149.925,28.468 
			149.83,28.539 149.739,28.621 149.658,28.708 149.574,28.8 149.49,28.896 149.41,29 149.328,29.111 149.247,29.223 
			149.445,28.218 147.851,28.218 146.812,34.171 146.812,34.171 		"/>
		<polygon fill-rule="evenodd" clip-rule="evenodd" fill="#FBB230" points="171.233,40.019 171.233,39.996 171.277,39.854 
			171.358,39.725 171.453,39.615 171.567,39.527 171.7,39.457 171.845,39.419 172.002,39.401 172.158,39.419 172.302,39.457 
			172.438,39.527 172.553,39.615 172.646,39.725 172.723,39.854 172.77,39.996 172.77,40.019 172.608,40.019 172.577,39.902 
			172.521,39.798 172.446,39.703 172.355,39.627 172.253,39.566 172.131,39.527 172.002,39.515 171.875,39.527 171.751,39.566 
			171.643,39.627 171.556,39.703 171.485,39.798 171.431,39.902 171.398,40.019 171.233,40.019 171.233,40.019 		"/>
		<polygon fill-rule="evenodd" clip-rule="evenodd" fill="#FBB230" points="171.724,40.019 171.724,39.825 172.029,39.825 
			172.097,39.825 172.158,39.837 172.201,39.847 172.242,39.869 172.269,39.897 172.291,39.93 172.302,39.971 172.306,40.019 
			172.196,40.019 172.196,39.99 172.189,39.963 172.181,39.941 172.162,39.93 172.148,39.919 172.118,39.914 172.09,39.91 
			172.062,39.91 172.029,39.91 171.864,39.91 171.864,40.019 171.724,40.019 171.724,40.019 		"/>
		<polygon fill-rule="evenodd" clip-rule="evenodd" fill="#FBB230" points="171.219,40.143 171.233,40.019 171.398,40.019 
			171.398,40.023 171.385,40.143 171.219,40.143 171.219,40.143 		"/>
		<polygon fill-rule="evenodd" clip-rule="evenodd" fill="#FBB230" points="171.724,40.143 171.724,40.019 171.864,40.019 
			171.864,40.132 172.002,40.132 172.051,40.121 172.09,40.116 172.124,40.105 172.154,40.093 172.173,40.076 172.184,40.06 
			172.196,40.032 172.196,40.019 172.306,40.019 172.306,40.019 172.302,40.06 172.291,40.093 172.274,40.121 172.253,40.143 
			171.724,40.143 171.724,40.143 		"/>
		<polygon fill-rule="evenodd" clip-rule="evenodd" fill="#FBB230" points="172.619,40.143 172.608,40.023 172.608,40.019 
			172.77,40.019 172.786,40.143 172.619,40.143 172.619,40.143 		"/>
		<polygon fill-rule="evenodd" clip-rule="evenodd" fill="#FBB230" points="171.219,40.143 171.219,40.16 171.233,40.318 
			171.277,40.469 171.358,40.604 171.453,40.722 171.567,40.814 171.7,40.88 171.845,40.928 172.002,40.941 172.158,40.928 
			172.302,40.88 172.438,40.814 172.553,40.722 172.646,40.604 172.723,40.469 172.77,40.318 172.786,40.16 172.786,40.143 
			172.619,40.143 172.619,40.16 172.608,40.293 172.577,40.415 172.521,40.519 172.446,40.615 172.355,40.693 172.253,40.754 
			172.131,40.794 172.002,40.803 171.875,40.794 171.751,40.754 171.643,40.693 171.556,40.615 171.485,40.519 171.431,40.415 
			171.398,40.293 171.385,40.16 171.385,40.143 171.219,40.143 171.219,40.143 		"/>
		<polygon fill-rule="evenodd" clip-rule="evenodd" fill="#FBB230" points="171.724,40.143 171.724,40.464 171.864,40.464 
			171.864,40.186 172.002,40.186 172.169,40.464 172.279,40.464 172.112,40.186 172.154,40.186 172.189,40.177 172.225,40.166 
			172.253,40.143 172.253,40.143 171.724,40.143 171.724,40.143 		"/>
		<path fill-rule="evenodd" clip-rule="evenodd" fill="#FFFFFF" d="M146.982,29.99l-0.044-0.333l-0.077-0.296l-0.113-0.254
			l-0.139-0.223l-0.167-0.191l-0.182-0.154l-0.202-0.133l-0.214-0.1l-0.226-0.085l-0.227-0.058l-0.227-0.036l-0.229-0.024
			l-0.215-0.005l-0.45,0.025l-0.4,0.065l-0.363,0.097l-0.322,0.143l-0.278,0.165l-0.243,0.189l-0.219,0.212l-0.179,0.222
			l-0.153,0.233l-0.128,0.245l-0.1,0.242l-0.083,0.235l-0.061,0.232l-0.047,0.218l-0.032,0.207l-0.023,0.177l-0.03,0.458
			l0.019,0.409l0.062,0.373l0.095,0.327l0.134,0.297l0.158,0.255l0.188,0.227l0.219,0.19l0.234,0.162l0.248,0.136l0.264,0.11
			l0.27,0.081l0.281,0.067l0.274,0.04l0.28,0.025l0.273,0.006h0.185l0.17-0.006h0.149l0.146-0.005l0.129-0.012l0.115-0.009
			l0.111-0.013l0.1-0.018l0.096-0.017l0.087-0.021l0.091-0.027l0.083-0.026l0.083-0.034l0.091-0.032l0.087-0.046l0.088-0.047
			l0.223-1.368l-0.163,0.097l-0.152,0.088l-0.164,0.067l-0.156,0.061l-0.15,0.051l-0.156,0.034l-0.15,0.026l-0.15,0.022
			l-0.148,0.012l-0.147,0.006h-0.149l-0.145-0.006l-0.145-0.012l-0.145-0.016l-0.135-0.018l-0.148-0.021l-0.114-0.021l-0.108-0.043
			l-0.113-0.047l-0.098-0.062l-0.1-0.065l-0.091-0.084l-0.083-0.082l-0.076-0.097l-0.069-0.093l-0.06-0.105l-0.042-0.102
			l-0.042-0.104l-0.022-0.107l-0.008-0.105l0.004-0.093l0.011-0.073h3.607l0.026-0.339l0.085-0.468l0.037-0.424L146.982,29.99z
			 M145.476,30.503h-2.034l0.004-0.007h-0.004l0.017-0.078l0.022-0.115l0.029-0.115l0.04-0.109l0.05-0.097l0.052-0.097l0.063-0.091
			l0.066-0.08l0.073-0.079l0.068-0.066l0.083-0.063l0.085-0.049l0.096-0.043l0.095-0.032l0.095-0.023l0.098-0.019l0.108-0.004
			l0.098,0.01l0.095,0.017l0.09,0.022l0.087,0.034l0.083,0.043l0.083,0.05l0.072,0.058l0.067,0.066l0.057,0.079l0.055,0.08
			l0.038,0.094l0.039,0.109l0.023,0.11l0.01,0.124l0.006,0.132L145.476,30.503z"/>
	</g>
</g>
<g>
	<path fill="#0078A9" d="M289.245,55.568c0,1.684-1.364,3.048-3.048,3.048h-85.292c-1.684,0-3.047-1.364-3.047-3.048V4.543
		c0-1.683,1.363-3.046,3.047-3.046h85.292c1.684,0,3.048,1.363,3.048,3.046V55.568z"/>
	<g>
		<path fill="#FFFFFF" d="M226.208,28.726v-0.912l-0.434,0.912h-3.786l-0.471-0.978v0.978h-7.075l-0.836-1.976h-1.418l-0.886,1.976
			h-3.667v-5.971l2.691-6.081h5.145l0.726,1.723v-1.711h6.291l1.386,2.902l1.354-2.914h19.87c0,0,1.043-0.016,1.728,0.468
			l-0.003-0.468h5.006v0.657c0,0,0.904-0.657,2.232-0.657s8.831,0,8.831,0l0.779,1.75v-1.75h5.66l1.027,1.75v-1.75h5.412v12.064
			h-5.558l-1.309-2.104v2.091h-6.913l-0.968-2.152h-1.357l-0.909,2.152h-4.183c0,0-1.559-0.02-2.729-0.856c0,0.44,0,0.856,0,0.856
			h-8.326c0,0,0-2.405,0-2.813c0-0.409-0.315-0.381-0.315-0.381h-0.303v3.194H226.208z"/>
		<path fill="#FFFFFF" d="M222.056,31.342h10.94l1.581,1.785l1.612-1.785h8.409c0,0,0.795,0.019,1.543,0.416v-0.416
			c0,0,6.542,0,7.489,0c0.952,0,1.752,0.473,1.752,0.473v-0.473h9.629v0.437c0,0,0.684-0.437,1.607-0.437c0.918,0,6.273,0,6.273,0
			v0.437c0,0,0.792-0.437,1.625-0.437c0.836,0,4.924,0,4.924,0v11.364c0,0-0.648,0.732-1.985,0.732h-6.496V43.08
			c0,0-0.615,0.358-1.559,0.358c-0.939,0-17.249,0-17.249,0s0-2.648,0-2.938c0-0.291-0.125-0.343-0.38-0.343h-0.238v3.28h-5.393
			v-3.258c0,0-0.601,0.32-1.593,0.32c-1.002,0-1.94,0-1.94,0v2.938h-6.646l-1.507-1.84l-1.619,1.84h-10.78V31.342z"/>
		<polygon fill="#0078A9" points="256.536,33.154 263.404,33.154 263.404,34.996 258.641,34.996 258.641,36.599 263.269,36.599 
			263.269,38.219 258.641,38.219 258.641,39.911 263.404,39.911 263.404,41.708 256.536,41.708 		"/>
		<path fill="#0078A9" d="M276.668,36.484c2.583,0.135,2.796,1.423,2.796,2.799c0,1.601-1.318,2.463-2.695,2.463h-4.408v-1.835
			h3.438c0.583,0,1.451,0,1.451-0.822c0-0.39-0.151-0.64-0.773-0.7c-0.277-0.042-1.296-0.1-1.452-0.104
			c-2.331-0.062-2.876-1.218-2.876-2.631c0-1.606,1.128-2.482,2.507-2.482h4.408v1.837h-3.227c-0.734,0.008-1.525-0.089-1.525,0.743
			c0,0.523,0.391,0.627,0.884,0.676C275.371,36.428,276.516,36.488,276.668,36.484z"/>
		<path fill="#0078A9" d="M268.762,36.484c2.581,0.135,2.795,1.423,2.795,2.799c0,1.601-1.316,2.463-2.692,2.463h-4.412v-1.835
			h3.439c0.584,0,1.452,0,1.452-0.822c0-0.39-0.153-0.64-0.774-0.7c-0.275-0.042-1.3-0.1-1.448-0.104
			c-2.335-0.062-2.875-1.218-2.875-2.631c0-1.606,1.127-2.482,2.5-2.482h4.411v1.837h-3.229c-0.733,0.008-1.528-0.089-1.528,0.743
			c0,0.523,0.396,0.627,0.894,0.676C267.461,36.428,268.61,36.488,268.762,36.484z"/>
		<path fill="#0078A9" d="M243.863,33.172h-7.375l-2.404,2.654l-2.326-2.672h-8.279v8.554h8.01l2.521-2.827l2.458,2.847h4.033V38.82
			h2.825c1.089,0,3.073-0.037,3.073-3.032C246.399,33.648,244.89,33.172,243.863,33.172z M230.39,39.911h-4.845v-1.692h4.635v-1.62
			h-4.635v-1.603l5.11,0.013l2.048,2.324L230.39,39.911z M238.421,40.903l-3.021-3.57l3.021-3.338V40.903z M243.154,37.061h-2.613
			v-2.052h2.621c0.88,0,1.158,0.562,1.158,0.979C244.32,36.564,244.01,37.061,243.154,37.061z"/>
		<path fill="#0078A9" d="M254.004,37.828c1.149-0.566,1.452-1.332,1.452-2.367c0-1.831-1.487-2.289-2.521-2.289h-5.461v8.556h2.101
			v-3.021h2.753c0.725,0,1.009,0.727,1.028,1.451l0.058,1.569h2.043l-0.078-1.761C255.378,38.593,255,37.946,254.004,37.828z
			 M252.194,36.946h-2.619v-1.938h2.627c0.881,0,1.154,0.562,1.154,0.979C253.356,36.564,253.052,36.946,252.194,36.946z"/>
		<rect x="248.321" y="18.386" fill="#0078A9" width="2.1" height="8.564"/>
		<polygon fill="#0078A9" points="231.125,18.397 237.988,18.397 237.988,20.236 233.227,20.236 233.227,21.843 237.857,21.843 
			237.857,23.466 233.227,23.466 233.227,25.154 237.988,25.154 237.988,26.95 231.125,26.95 		"/>
		<path fill="#0078A9" d="M245.765,23.054c1.146-0.57,1.452-1.334,1.452-2.37c0-1.831-1.488-2.287-2.52-2.287h-5.461v8.553h2.101
			v-3.018h2.747c0.729,0,1.015,0.725,1.031,1.452l0.056,1.565h2.046l-0.074-1.757C247.143,23.818,246.759,23.17,245.765,23.054z
			 M243.95,22.169h-2.612v-1.938h2.623c0.877,0,1.155,0.564,1.155,0.983C245.116,21.787,244.813,22.169,243.95,22.169z"/>
		<path fill="#0078A9" d="M226.281,18.397l-2.575,5.738l-2.569-5.738h-3.296v8.238l-3.664-8.238h-2.774l-3.744,8.553h2.213
			l0.819-1.909h4.192l0.831,1.909h4.228v-6.348l2.808,6.348h1.909l2.874-6.245v6.245h2.103v-8.553H226.281z M211.484,23.194
			l1.253-2.991l1.307,2.991H211.484z"/>
		<path fill="#0078A9" d="M272.087,18.391v5.922l-3.539-5.922h-3.106v8.034l-3.575-8.028h-2.782l-2.893,6.626
			c0,0-1.221,0-1.346-0.033c-0.505-0.104-1.297-0.46-1.308-1.969v-0.618c0-2.006,1.09-2.153,2.486-2.153h1.297v-1.86h-2.742
			c-0.956,0-3.03,0.73-3.104,4.242c-0.045,2.371,0.987,4.321,3.313,4.321h2.771l0.822-1.909h4.188l0.831,1.909h4.146V20.69
			l3.782,6.264h2.861v-8.563H272.087z M259.19,23.198l1.252-2.988l1.317,2.988H259.19z"/>
	</g>
</g>
<g>
	<path fill="#F2F2F2" d="M386.313,55.693c0,1.684-1.368,3.052-3.053,3.052h-85.436c-1.684,0-3.048-1.368-3.048-3.052V4.583
		c0-1.687,1.364-3.051,3.048-3.051h85.436c1.685,0,3.053,1.365,3.053,3.051V55.693z"/>
	<path fill="#F58220" d="M319.936,58.745h63.324c1.685,0,3.053-1.368,3.053-3.052V34.271
		C380.234,38.123,357.32,51.406,319.936,58.745z"/>
	<g>
		
			<radialGradient id="SVGID_1_" cx="335.2388" cy="-455.9414" r="4.511" gradientTransform="matrix(1 0 0 1 6.416 486.083)" gradientUnits="userSpaceOnUse">
			<stop  offset="0.0056" style="stop-color:#FFEEE1"/>
			<stop  offset="0.0966" style="stop-color:#FFEAD8"/>
			<stop  offset="0.2452" style="stop-color:#FEDDC2"/>
			<stop  offset="0.4329" style="stop-color:#FCCA9F"/>
			<stop  offset="0.6522" style="stop-color:#F9AF72"/>
			<stop  offset="0.8954" style="stop-color:#F68F39"/>
			<stop  offset="1" style="stop-color:#F48220"/>
		</radialGradient>
		<path fill="url(#SVGID_1_)" d="M341.663,25.682c-2.522,0-4.569,1.971-4.569,4.401c0,2.587,1.956,4.519,4.569,4.519
			c2.543,0,4.554-1.956,4.554-4.468C346.216,27.642,344.217,25.682,341.663,25.682z"/>
		<path fill="#081A23" d="M315.729,25.842h-2.457v8.566h2.444c1.295,0,2.232-0.308,3.058-0.986c0.972-0.812,1.552-2.034,1.552-3.292
			C320.326,27.601,318.436,25.842,315.729,25.842z M317.682,32.277c-0.53,0.475-1.207,0.681-2.29,0.681h-0.448v-5.667h0.448
			c1.083,0,1.734,0.195,2.29,0.694c0.575,0.515,0.92,1.31,0.92,2.131C318.602,30.939,318.257,31.763,317.682,32.277z"/>
		<rect x="321.096" y="25.842" fill="#081A23" width="1.669" height="8.566"/>
		<path fill="#081A23" d="M326.851,29.127c-1.004-0.369-1.298-0.615-1.298-1.077c0-0.539,0.527-0.95,1.246-0.95
			c0.5,0,0.912,0.207,1.351,0.69l0.874-1.14c-0.723-0.63-1.583-0.952-2.521-0.952c-1.514,0-2.672,1.055-2.672,2.453
			c0,1.184,0.539,1.787,2.106,2.352c0.656,0.23,0.988,0.384,1.156,0.488c0.334,0.222,0.503,0.525,0.503,0.884
			c0,0.698-0.552,1.211-1.301,1.211c-0.795,0-1.435-0.398-1.823-1.143l-1.077,1.041c0.77,1.129,1.692,1.631,2.968,1.631
			c1.732,0,2.952-1.157,2.952-2.812C329.316,30.438,328.752,29.821,326.851,29.127z"/>
		<path fill="#081A23" d="M329.843,30.13c0,2.521,1.978,4.472,4.522,4.472c0.719,0,1.334-0.142,2.093-0.501v-1.965
			c-0.667,0.668-1.26,0.935-2.016,0.935c-1.683,0-2.878-1.219-2.878-2.954c0-1.642,1.23-2.939,2.801-2.939
			c0.796,0,1.398,0.282,2.093,0.961v-1.964c-0.73-0.372-1.336-0.524-2.056-0.524C331.873,25.649,329.843,27.642,329.843,30.13z"/>
		<polygon fill="#081A23" points="349.996,31.596 347.711,25.842 345.885,25.842 349.523,34.63 350.42,34.63 354.123,25.842 
			352.31,25.842 		"/>
		<polygon fill="#081A23" points="354.88,34.408 359.618,34.408 359.618,32.958 356.549,32.958 356.549,30.644 359.502,30.644 
			359.502,29.194 356.549,29.194 356.549,27.291 359.618,27.291 359.618,25.842 354.88,25.842 		"/>
		<path fill="#081A23" d="M366.234,28.37c0-1.605-1.104-2.528-3.031-2.528h-2.481v8.566h1.673v-3.442h0.219l2.312,3.442h2.054
			l-2.698-3.607C365.541,30.543,366.234,29.683,366.234,28.37z M362.88,29.785h-0.486v-2.597h0.514c1.043,0,1.606,0.44,1.606,1.271
			C364.514,29.32,363.951,29.785,362.88,29.785z"/>
		<path fill="#231F20" d="M367.414,26.48c0-0.151-0.104-0.232-0.287-0.232h-0.242v0.755h0.178V26.71l0.212,0.293h0.224l-0.25-0.312
			C367.353,26.662,367.414,26.586,367.414,26.48z M367.095,26.582h-0.033v-0.195h0.035c0.091,0,0.135,0.032,0.135,0.098
			C367.232,26.548,367.187,26.582,367.095,26.582z"/>
		<path fill="#231F20" d="M367.165,25.964c-0.368,0-0.66,0.295-0.66,0.66c0,0.364,0.295,0.657,0.66,0.657
			c0.356,0,0.649-0.296,0.649-0.657S367.521,25.964,367.165,25.964z M367.163,27.164c-0.293,0-0.528-0.239-0.528-0.538
			c0-0.302,0.234-0.541,0.528-0.541c0.284,0,0.517,0.243,0.517,0.541C367.679,26.921,367.447,27.164,367.163,27.164z"/>
	</g>
</g>
<g>
	<path fill="#084E94" d="M484.523,55.923c0,1.701-1.38,3.08-3.08,3.08h-86.207c-1.702,0-3.08-1.379-3.08-3.08V4.352
		c0-1.702,1.378-3.079,3.08-3.079h86.207c1.7,0,3.08,1.377,3.08,3.079V55.923z"/>
	<path fill="#FFFFFF" d="M440.55,32.762c5.218,0.022,9.984-4.257,9.984-9.467c0-5.696-4.767-9.629-9.984-9.628h-4.493
		c-5.279-0.001-9.63,3.935-9.63,9.628c0,5.21,4.351,9.489,9.63,9.467H440.55z"/>
	<path fill="#084E94" d="M438.059,28.368V18.025c2.081,0.797,3.558,2.811,3.562,5.169C441.617,25.556,440.14,27.568,438.059,28.368
		 M430.538,23.194c0.005-2.357,1.48-4.368,3.558-5.169v10.342C432.018,27.567,430.542,25.556,430.538,23.194 M436.079,14.455
		c-4.826,0.002-8.739,3.915-8.739,8.74c0,4.828,3.913,8.737,8.739,8.741c4.826-0.004,8.739-3.913,8.739-8.741
		C444.818,18.37,440.905,14.457,436.079,14.455"/>
	<g>
		<path fill="#FFFFFF" d="M416.666,39.276c0,0.779,0.557,0.869,1.048,0.869c2.181,0,2.9-1.647,2.9-3.149
			c0-1.892-1.216-3.251-3.161-3.251c-0.414,0-0.605,0.032-0.787,0.039V39.276z M415.675,34.544c0-0.913-0.474-0.852-0.929-0.859
			v-0.262c0.394,0.019,0.8,0.019,1.191,0.019c0.424,0,1.001-0.019,1.746-0.019c2.613,0,4.038,1.747,4.038,3.535
			c0,0.997-0.585,3.511-4.157,3.511c-0.518,0-0.991-0.019-1.465-0.019c-0.457,0-0.898,0.012-1.354,0.019v-0.262
			c0.604-0.062,0.896-0.079,0.929-0.767V34.544z"/>
		<path fill="#FFFFFF" d="M423.155,34.301c-0.262,0-0.495-0.244-0.495-0.506c0-0.255,0.245-0.486,0.495-0.486
			c0.264,0,0.495,0.214,0.495,0.486S423.428,34.301,423.155,34.301 M422.075,40.207h0.192c0.285,0,0.486,0,0.486-0.334v-2.737
			c0-0.443-0.154-0.504-0.525-0.705V36.27c0.472-0.143,1.038-0.333,1.079-0.364c0.07-0.042,0.131-0.053,0.181-0.053
			c0.053,0,0.071,0.061,0.071,0.146v3.875c0,0.334,0.22,0.334,0.505,0.334h0.172v0.262c-0.345,0-0.695-0.019-1.06-0.019
			s-0.727,0.012-1.102,0.019V40.207z"/>
		<path fill="#FFFFFF" d="M425.194,37.197c0-0.373-0.112-0.473-0.583-0.666v-0.193c0.432-0.14,0.848-0.268,1.328-0.485
			c0.033,0,0.061,0.023,0.061,0.102v0.657c0.578-0.413,1.073-0.759,1.751-0.759c0.856,0,1.159,0.626,1.159,1.417v2.604
			c0,0.334,0.222,0.334,0.504,0.334h0.183v0.262c-0.354,0-0.709-0.019-1.069-0.019c-0.363,0-0.728,0.012-1.092,0.019v-0.262h0.183
			c0.282,0,0.484,0,0.484-0.334v-2.615c0-0.573-0.352-0.859-0.929-0.859c-0.322,0-0.836,0.263-1.174,0.487v2.987
			c0,0.334,0.226,0.334,0.508,0.334h0.182v0.262c-0.352,0-0.707-0.019-1.069-0.019c-0.364,0-0.728,0.012-1.091,0.019v-0.262h0.183
			c0.282,0,0.482,0,0.482-0.334V37.197z"/>
		<path fill="#FFFFFF" d="M432.148,37.358c0.257,0,0.283-0.132,0.283-0.254c0-0.512-0.311-0.93-0.876-0.93
			c-0.615,0-1.041,0.457-1.163,1.184H432.148z M430.364,37.683c-0.021,0.092-0.021,0.242,0,0.584
			c0.061,0.962,0.678,1.747,1.482,1.747c0.559,0,0.992-0.305,1.363-0.677l0.143,0.143c-0.466,0.618-1.039,1.137-1.866,1.137
			c-1.605,0-1.93-1.551-1.93-2.196c0-1.979,1.332-2.567,2.039-2.567c0.819,0,1.699,0.518,1.708,1.588c0,0.061,0,0.121-0.009,0.182
			l-0.094,0.061H430.364z"/>
		<path fill="#FFFFFF" d="M433.535,40.207h0.271c0.283,0,0.483,0,0.483-0.334v-2.837c0-0.312-0.369-0.375-0.525-0.453v-0.152
			c0.737-0.312,1.143-0.578,1.235-0.578c0.059,0,0.089,0.035,0.089,0.132v0.909h0.02c0.254-0.392,0.679-1.041,1.293-1.041
			c0.253,0,0.573,0.175,0.573,0.536c0,0.272-0.188,0.517-0.474,0.517c-0.312,0-0.312-0.244-0.666-0.244
			c-0.173,0-0.738,0.232-0.738,0.84v2.372c0,0.334,0.204,0.334,0.488,0.334h0.564v0.262c-0.557-0.007-0.979-0.019-1.413-0.019
			c-0.416,0-0.837,0.012-1.201,0.019V40.207z"/>
		<path fill="#FFFFFF" d="M437.417,39.065c0.133,0.667,0.537,1.229,1.275,1.229c0.595,0,0.815-0.36,0.815-0.714
			c0-1.191-2.199-0.812-2.199-2.432c0-0.565,0.453-1.296,1.565-1.296c0.323,0,0.755,0.092,1.149,0.296l0.071,1.024h-0.232
			c-0.104-0.634-0.458-0.998-1.101-0.998c-0.404,0-0.788,0.235-0.788,0.667c0,1.183,2.342,0.821,2.342,2.405
			c0,0.664-0.535,1.369-1.736,1.369c-0.403,0-0.879-0.14-1.23-0.339l-0.109-1.159L437.417,39.065z"/>
		<path fill="#FFFFFF" d="M449.434,35.25h-0.256c-0.191-1.183-1.03-1.659-2.158-1.659c-1.16,0-2.848,0.78-2.848,3.202
			c0,2.039,1.454,3.501,3.006,3.501c1.002,0,1.83-0.683,2.032-1.745l0.232,0.062l-0.232,1.475c-0.427,0.263-1.565,0.531-2.232,0.531
			c-2.362,0-3.853-1.522-3.853-3.792c0-2.074,1.846-3.553,3.823-3.553c0.816,0,1.604,0.263,2.383,0.534L449.434,35.25z"/>
		<path fill="#FFFFFF" d="M449.795,40.207h0.195c0.282,0,0.479,0,0.479-0.334v-5.624c0-0.658-0.148-0.674-0.533-0.783v-0.165
			c0.403-0.129,0.828-0.311,1.038-0.436c0.113-0.062,0.195-0.11,0.222-0.11c0.062,0,0.081,0.061,0.081,0.146v6.973
			c0,0.334,0.224,0.334,0.507,0.334h0.172v0.262c-0.343,0-0.698-0.019-1.059-0.019c-0.363,0-0.728,0.012-1.103,0.019V40.207z"/>
		<path fill="#FFFFFF" d="M456.276,39.911c0,0.187,0.11,0.194,0.283,0.194c0.121,0,0.271-0.008,0.404-0.008v0.208
			c-0.433,0.042-1.264,0.25-1.454,0.311l-0.049-0.03V39.77c-0.607,0.498-1.072,0.847-1.788,0.847c-0.545,0-1.11-0.349-1.11-1.194
			v-2.59c0-0.257-0.039-0.512-0.604-0.562V36.08c0.361-0.01,1.17-0.074,1.3-0.074c0.112,0,0.112,0.074,0.112,0.295v2.604
			c0,0.303,0,1.17,0.879,1.17c0.342,0,0.796-0.263,1.222-0.617v-2.713c0-0.206-0.486-0.311-0.848-0.413v-0.184
			c0.906-0.061,1.472-0.143,1.571-0.143c0.082,0,0.082,0.074,0.082,0.182V39.911z"/>
		<path fill="#FFFFFF" d="M458.286,39.329c0,0.38,0.365,1.03,1.039,1.03c1.079,0,1.534-1.062,1.534-1.959
			c0-1.09-0.829-2.002-1.615-2.002c-0.373,0-0.685,0.245-0.958,0.48V39.329z M458.286,36.583c0.403-0.348,0.947-0.73,1.504-0.73
			c1.17,0,1.878,1.026,1.878,2.118c0,1.326-0.97,2.646-2.413,2.646c-0.746,0-1.142-0.238-1.404-0.349l-0.303,0.231l-0.21-0.109
			c0.091-0.596,0.143-1.182,0.143-1.801v-4.34c0-0.658-0.154-0.674-0.538-0.783v-0.165c0.404-0.129,0.83-0.311,1.039-0.436
			c0.112-0.062,0.19-0.11,0.226-0.11c0.061,0,0.079,0.061,0.079,0.146V36.583z"/>
		<path fill="#FFFFFF" d="M414.734,46.338h0.077c0.197,0,0.408-0.03,0.408-0.315v-2.877c0-0.281-0.211-0.312-0.408-0.312h-0.077
			v-0.166c0.218,0,0.545,0.021,0.815,0.021c0.275,0,0.603-0.021,0.864-0.021v0.166h-0.079c-0.195,0-0.408,0.03-0.408,0.312v2.877
			c0,0.285,0.213,0.315,0.408,0.315h0.079v0.167c-0.266,0-0.595-0.022-0.87-0.022c-0.269,0-0.592,0.022-0.81,0.022V46.338z"/>
		<path fill="#FFFFFF" d="M416.388,46.479V46.36h-0.054c-0.195,0-0.432-0.034-0.432-0.338v-2.877c0-0.3,0.236-0.334,0.432-0.334
			h0.054v-0.118c-0.254,0-0.571,0.023-0.839,0.023c-0.262,0-0.575-0.023-0.79-0.023v0.118h0.052c0.194,0,0.432,0.034,0.432,0.334
			v2.877c0,0.304-0.237,0.338-0.432,0.338h-0.052v0.118c0.215,0,0.523-0.022,0.784-0.022
			C415.812,46.456,416.13,46.479,416.388,46.479 M416.414,46.527c-0.267,0-0.595-0.022-0.87-0.022c-0.269,0-0.591,0.022-0.81,0.022
			h-0.021v-0.022v-0.167v-0.026h0.021h0.077c0.201-0.004,0.382-0.02,0.384-0.289v-2.877c-0.002-0.27-0.183-0.281-0.384-0.289h-0.099
			v-0.022v-0.189h0.021c0.219,0,0.545,0.023,0.815,0.023c0.275,0,0.603-0.023,0.864-0.023h0.021v0.023v0.188h-0.021h-0.079
			c-0.199,0.008-0.383,0.02-0.383,0.289v2.877c0,0.27,0.184,0.285,0.383,0.289h0.1v0.026v0.189H416.414z"/>
		<path fill="#FFFFFF" d="M420.183,45.418l0.011-0.01v-2.058c0-0.452-0.311-0.517-0.477-0.517h-0.121v-0.166
			c0.258,0,0.511,0.021,0.77,0.021c0.226,0,0.449-0.021,0.675-0.021v0.166h-0.081c-0.232,0-0.491,0.042-0.491,0.699v2.497
			c0,0.194,0.007,0.384,0.033,0.555h-0.208l-2.827-3.155v2.267c0,0.479,0.094,0.642,0.514,0.642h0.097v0.167
			c-0.236,0-0.476-0.022-0.711-0.022c-0.245,0-0.5,0.022-0.746,0.022v-0.167h0.077c0.376,0,0.495-0.259,0.495-0.694v-2.315
			c0-0.304-0.253-0.494-0.5-0.494h-0.072v-0.166c0.21,0,0.424,0.021,0.63,0.021c0.165,0,0.326-0.021,0.489-0.021L420.183,45.418z"/>
		<path fill="#FFFFFF" d="M420.171,45.408L420.171,45.408l-0.004-0.004L420.171,45.408z M420.183,45.418l0.019-0.014L420.183,45.418
			z M420.293,46.56h0.182c-0.026-0.165-0.03-0.347-0.03-0.529v-2.497c0-0.661,0.278-0.722,0.515-0.722h0.059v-0.118
			c-0.22,0-0.434,0.023-0.652,0.023c-0.251,0-0.495-0.023-0.746-0.023v0.118h0.098c0.168,0,0.501,0.07,0.501,0.539l-0.007,2.075
			l-0.011,0.013l-0.02,0.019l-2.442-2.764c-0.161,0-0.321,0.023-0.489,0.023c-0.202,0-0.407-0.023-0.604-0.023l-0.001,0.118h0.048
			c0.26,0,0.525,0.196,0.525,0.517v2.315c0,0.436-0.125,0.717-0.521,0.717h-0.052v0.118c0.233,0,0.482-0.022,0.721-0.022
			c0.228,0,0.461,0.022,0.686,0.022V46.36h-0.071c-0.428,0-0.539-0.186-0.539-0.664v-2.327L420.293,46.56z M420.501,46.607
			l-0.226-0.008l-2.787-3.105v2.202c0.007,0.479,0.08,0.611,0.491,0.615h0.121v0.026v0.189h-0.024c-0.237,0-0.476-0.022-0.711-0.022
			c-0.245,0-0.5,0.022-0.746,0.022h-0.024v-0.022v-0.193h0.024h0.077c0.361,0,0.466-0.232,0.472-0.668v-2.315
			c-0.003-0.289-0.242-0.472-0.477-0.472h-0.097v-0.022v-0.189h0.024c0.21,0,0.424,0.023,0.63,0.023
			c0.164,0,0.326-0.023,0.509-0.016l2.413,2.717v-2.019c-0.002-0.437-0.293-0.486-0.454-0.494h-0.143v-0.022v-0.189h0.021
			c0.261,0,0.513,0.023,0.77,0.023c0.226,0,0.448-0.023,0.675-0.023h0.025v0.023v0.188h-0.025h-0.081
			c-0.229,0.008-0.459,0.021-0.464,0.677v2.497c0,0.194,0.003,0.384,0.028,0.547l0.005,0.03H420.501z"/>
		<path fill="#FFFFFF" d="M421.867,42.943c-0.416,0-0.434,0.1-0.513,0.498h-0.165c0.021-0.151,0.05-0.304,0.069-0.463
			c0.018-0.157,0.031-0.311,0.031-0.472h0.131c0.043,0.169,0.181,0.161,0.33,0.161h2.831c0.151,0,0.287-0.004,0.298-0.173
			l0.131,0.024c-0.021,0.148-0.042,0.298-0.061,0.448c-0.009,0.147-0.009,0.296-0.009,0.439l-0.165,0.064
			c-0.013-0.2-0.039-0.528-0.405-0.528h-0.903v2.923c0,0.422,0.194,0.472,0.457,0.472h0.101v0.167c-0.21,0-0.597-0.022-0.893-0.022
			c-0.327,0-0.711,0.022-0.926,0.022v-0.167h0.104c0.301,0,0.453-0.03,0.453-0.459v-2.936H421.867z"/>
		<path fill="#FFFFFF" d="M424.029,46.527c-0.215,0-0.601-0.022-0.896-0.022c-0.327,0-0.711,0.022-0.926,0.022h-0.026v-0.022v-0.193
			h0.026h0.104c0.301-0.004,0.423-0.012,0.431-0.433v-2.911h-0.875v-0.024v-0.026h0.921v2.962c0,0.437-0.177,0.481-0.477,0.481
			h-0.083v0.118c0.219,0,0.586-0.022,0.904-0.022c0.29,0,0.655,0.022,0.873,0.022V46.36h-0.081c-0.267,0-0.479-0.064-0.479-0.494
			v-2.949h0.926c0.365,0.004,0.415,0.316,0.426,0.517l0.119-0.038c0-0.144,0-0.288,0.012-0.432c0.017-0.143,0.036-0.281,0.057-0.422
			l-0.083-0.015c-0.026,0.158-0.179,0.166-0.321,0.166h-2.83h-0.031c-0.126,0-0.269-0.008-0.318-0.159h-0.09
			c0,0.151-0.011,0.3-0.032,0.444c-0.016,0.151-0.04,0.296-0.061,0.44h0.114c0.074-0.38,0.12-0.505,0.534-0.502v0.026v0.024
			c-0.409,0.007-0.401,0.075-0.491,0.478l-0.003,0.022h-0.019h-0.196l0.006-0.03c0.021-0.151,0.051-0.305,0.067-0.463
			c0.023-0.157,0.032-0.307,0.032-0.468v-0.018h0.026h0.147l0.004,0.01c0.038,0.142,0.143,0.142,0.278,0.146h0.031h2.83
			c0.156-0.004,0.267-0.004,0.275-0.149l0.002-0.021l0.026,0.004l0.157,0.021l-0.004,0.024c-0.025,0.148-0.045,0.294-0.062,0.444
			c-0.012,0.147-0.012,0.296-0.012,0.439v0.019l-0.016,0.004l-0.194,0.072v-0.03c-0.018-0.204-0.035-0.504-0.383-0.504h-0.879v2.898
			c0.004,0.411,0.169,0.441,0.432,0.445h0.129v0.026v0.189H424.029z"/>
		<path fill="#FFFFFF" d="M425.184,46.338h0.08c0.198,0,0.407-0.03,0.407-0.315v-2.877c0-0.281-0.209-0.312-0.407-0.312h-0.08
			v-0.166c0.339,0,0.909,0.021,1.368,0.021c0.464,0,1.034-0.021,1.408-0.021c-0.011,0.234-0.006,0.604,0.01,0.843l-0.166,0.045
			c-0.025-0.362-0.089-0.646-0.667-0.646h-0.764v1.441h0.654c0.328,0,0.4-0.188,0.433-0.488h0.165
			c-0.01,0.221-0.016,0.432-0.016,0.646c0,0.209,0.006,0.42,0.016,0.626l-0.165,0.033c-0.032-0.329-0.049-0.543-0.427-0.543h-0.66
			v1.28c0,0.356,0.319,0.356,0.672,0.356c0.657,0,0.948-0.045,1.11-0.667l0.156,0.038c-0.073,0.288-0.137,0.58-0.187,0.872
			c-0.354,0-0.983-0.022-1.478-0.022s-1.146,0.022-1.464,0.022V46.338z"/>
		<path fill="#FFFFFF" d="M428.106,46.479c0.046-0.277,0.109-0.554,0.176-0.831l-0.106-0.026c-0.166,0.614-0.485,0.667-1.129,0.66
			c-0.35,0-0.696,0-0.699-0.376v-1.303h0.687c0.382-0.008,0.422,0.226,0.447,0.54l0.119-0.027c-0.011-0.202-0.015-0.404-0.015-0.606
			c0-0.206,0.004-0.41,0.015-0.618h-0.119c-0.029,0.287-0.12,0.489-0.453,0.483h-0.681v-1.492h0.79
			c0.57-0.004,0.665,0.294,0.691,0.64l0.117-0.031c-0.009-0.155-0.017-0.353-0.017-0.534c0-0.096,0.001-0.183,0.005-0.263
			c-0.373,0-0.928,0.023-1.382,0.023c-0.451,0-1.006-0.023-1.341-0.023v0.118h0.053c0.194,0,0.429,0.034,0.431,0.334v2.877
			c-0.002,0.304-0.236,0.338-0.431,0.338h-0.053v0.118c0.32,0,0.953-0.022,1.437-0.022C427.133,46.456,427.75,46.479,428.106,46.479
			 M428.125,46.527c-0.354,0-0.983-0.022-1.478-0.022s-1.146,0.022-1.464,0.022h-0.018v-0.022v-0.167v-0.026h0.018h0.08
			c0.199-0.004,0.379-0.02,0.382-0.289v-2.877c-0.003-0.27-0.183-0.281-0.382-0.289h-0.098v-0.022v-0.189h0.018
			c0.34,0,0.909,0.023,1.368,0.023c0.464,0,1.034-0.023,1.408-0.023h0.024v0.027c-0.007,0.082-0.008,0.178-0.008,0.284
			c0,0.186,0.008,0.395,0.017,0.55v0.023l-0.017,0.004l-0.192,0.053l-0.004-0.03c-0.03-0.357-0.078-0.616-0.644-0.623h-0.742v1.394
			h0.633c0.315-0.003,0.372-0.167,0.407-0.463l0.004-0.02h0.021h0.188v0.023c-0.009,0.217-0.016,0.428-0.016,0.642
			c0,0.209,0.007,0.416,0.016,0.626v0.02l-0.019,0.003l-0.19,0.038l-0.004-0.023c-0.035-0.337-0.039-0.52-0.401-0.522h-0.639v1.256
			c0.003,0.334,0.292,0.33,0.651,0.334c0.657-0.008,0.923-0.038,1.09-0.652l0.006-0.022l0.021,0.004l0.176,0.044l-0.006,0.023
			c-0.069,0.289-0.134,0.581-0.184,0.873l-0.007,0.019H428.125z"/>
		<path fill="#FFFFFF" d="M429.755,44.524h0.27c0.55,0,0.845-0.205,0.845-0.855c0-0.489-0.312-0.801-0.801-0.801
			c-0.165,0-0.235,0.01-0.313,0.018V44.524z M429.054,43.252c0-0.402-0.221-0.418-0.394-0.418h-0.095v-0.166
			c0.175,0,0.515,0.021,0.85,0.021c0.328,0,0.593-0.021,0.883-0.021c0.692,0,1.312,0.188,1.312,0.969
			c0,0.492-0.333,0.796-0.767,0.966l0.94,1.405c0.151,0.231,0.264,0.297,0.534,0.33v0.167c-0.183,0-0.36-0.022-0.54-0.022
			c-0.168,0-0.348,0.022-0.518,0.022c-0.424-0.558-0.787-1.147-1.14-1.784h-0.365v1.181c0,0.421,0.197,0.437,0.449,0.437h0.1v0.167
			c-0.311,0-0.631-0.022-0.943-0.022c-0.265,0-0.522,0.022-0.795,0.022v-0.167h0.095c0.205,0,0.394-0.095,0.394-0.296V43.252z"/>
		<path fill="#FFFFFF" d="M430.025,44.5c0.545-0.004,0.818-0.193,0.823-0.831c-0.005-0.482-0.304-0.778-0.779-0.783
			c-0.149,0-0.219,0.017-0.29,0.024v1.59H430.025z M429.755,44.546h-0.022v-1.678l0.021-0.004c0.072-0.004,0.148-0.019,0.314-0.019
			c0.501,0,0.825,0.322,0.825,0.823c0,0.657-0.316,0.877-0.869,0.877H429.755z M429.755,44.699h0.378l0.005,0.012
			c0.358,0.633,0.718,1.225,1.122,1.768c0.167,0,0.348-0.022,0.517-0.022c0.174,0,0.346,0.019,0.518,0.022v-0.122
			c-0.263-0.03-0.382-0.105-0.53-0.337l-0.956-1.429l0.025-0.01c0.431-0.172,0.75-0.46,0.75-0.944c0-0.765-0.594-0.939-1.285-0.943
			c-0.289,0-0.555,0.023-0.883,0.023c-0.323,0-0.647-0.023-0.829-0.023v0.118h0.074c0.174,0,0.416,0.026,0.416,0.44v2.79
			c0,0.22-0.207,0.318-0.416,0.318h-0.074v0.118c0.266,0,0.517-0.022,0.774-0.022c0.304,0,0.616,0.022,0.918,0.022V46.36h-0.074
			c-0.249,0-0.472-0.03-0.472-0.459v-1.202H429.755z M432.318,46.527c-0.187,0-0.362-0.022-0.541-0.022
			c-0.165,0-0.343,0.022-0.533,0.012c-0.423-0.551-0.784-1.143-1.14-1.77h-0.325v1.154c0.007,0.406,0.173,0.406,0.426,0.41h0.124
			v0.026v0.189h-0.024c-0.312,0-0.632-0.022-0.943-0.022c-0.262,0-0.522,0.022-0.795,0.022h-0.026v-0.022v-0.193h0.026h0.095
			c0.198,0,0.367-0.083,0.367-0.27v-2.79c-0.004-0.388-0.193-0.388-0.367-0.396h-0.121v-0.022v-0.189h0.026
			c0.177,0,0.515,0.023,0.85,0.023c0.326,0,0.59-0.023,0.883-0.023c0.692,0,1.332,0.193,1.332,0.992
			c0,0.492-0.326,0.805-0.749,0.977l0.92,1.383c0.154,0.229,0.251,0.281,0.518,0.315l0.02,0.004v0.022v0.189H432.318z"/>
		<path fill="#FFFFFF" d="M436.045,45.418l0.01-0.01v-2.058c0-0.452-0.314-0.517-0.479-0.517h-0.119v-0.166
			c0.257,0,0.51,0.021,0.771,0.021c0.226,0,0.448-0.021,0.675-0.021v0.166h-0.084c-0.229,0-0.485,0.042-0.485,0.699v2.497
			c0,0.194,0.007,0.384,0.03,0.555h-0.206l-2.83-3.155v2.267c0,0.479,0.091,0.642,0.518,0.642h0.092v0.167
			c-0.236,0-0.472-0.022-0.709-0.022c-0.247,0-0.498,0.022-0.744,0.022v-0.167h0.073c0.38,0,0.496-0.259,0.496-0.694v-2.315
			c0-0.304-0.254-0.494-0.5-0.494h-0.069v-0.166c0.205,0,0.419,0.021,0.627,0.021c0.165,0,0.324-0.021,0.491-0.021L436.045,45.418z"
			/>
		<path fill="#FFFFFF" d="M436.032,45.408L436.032,45.408l-0.006-0.004L436.032,45.408z M436.045,45.418l0.017-0.014L436.045,45.418
			z M436.157,46.56h0.18c-0.025-0.161-0.03-0.347-0.03-0.529v-2.497c0-0.661,0.278-0.722,0.512-0.722h0.062v-0.118
			c-0.217,0-0.436,0.023-0.652,0.023c-0.254,0-0.5-0.023-0.747-0.023v0.118h0.096c0.17,0,0.505,0.07,0.505,0.539l-0.009,2.075
			l-0.01,0.013l-0.017,0.019l-2.444-2.764c-0.164,0-0.323,0.023-0.491,0.023c-0.202,0-0.408-0.023-0.606-0.023v0.118h0.049
			c0.257,0,0.522,0.196,0.522,0.517v2.315c0,0.436-0.125,0.717-0.519,0.717h-0.053v0.118c0.239,0,0.48-0.022,0.723-0.022
			c0.23,0,0.456,0.022,0.688,0.022V46.36h-0.069c-0.436,0-0.541-0.186-0.541-0.664v-2.327L436.157,46.56z M436.363,46.607
			l-0.227-0.008l-2.785-3.105v2.202c0.007,0.479,0.075,0.611,0.493,0.615h0.112v0.026v0.189h-0.022
			c-0.236,0-0.473-0.022-0.708-0.022c-0.244,0-0.497,0.022-0.743,0.022h-0.027v-0.022v-0.193h0.027h0.073
			c0.361,0,0.467-0.232,0.473-0.668v-2.315c-0.002-0.289-0.242-0.472-0.477-0.472h-0.097v-0.022v-0.189h0.027
			c0.207,0,0.421,0.023,0.627,0.023c0.164,0,0.32-0.023,0.508-0.016l2.414,2.717v-2.019c0-0.437-0.295-0.49-0.456-0.494h-0.144
			v-0.022v-0.189h0.024c0.258,0,0.511,0.023,0.771,0.023c0.223,0,0.448-0.023,0.674-0.023h0.025v0.023v0.188h-0.025h-0.083
			c-0.226,0.008-0.459,0.021-0.465,0.677v2.497c0,0.194,0.004,0.384,0.031,0.551l0.005,0.026H436.363z"/>
		<path fill="#FFFFFF" d="M438.587,43.286h-0.012l-0.512,1.553h1.028L438.587,43.286z M437.785,45.72
			c-0.057,0.186-0.121,0.326-0.121,0.429c0,0.159,0.23,0.189,0.412,0.189h0.062v0.167c-0.22-0.014-0.449-0.022-0.667-0.022
			c-0.196,0-0.392,0.009-0.591,0.022v-0.167h0.032c0.211,0,0.396-0.125,0.478-0.356l0.879-2.521
			c0.073-0.204,0.172-0.478,0.206-0.683c0.175-0.057,0.392-0.171,0.497-0.235c0.018-0.004,0.029-0.012,0.045-0.012
			c0.013,0,0.026,0,0.037,0.02c0.017,0.041,0.032,0.091,0.052,0.136l1.009,2.875c0.068,0.189,0.135,0.391,0.202,0.561
			c0.066,0.148,0.183,0.217,0.365,0.217h0.031v0.167c-0.246-0.014-0.493-0.022-0.759-0.022s-0.546,0.009-0.825,0.022v-0.167h0.065
			c0.122,0,0.339-0.022,0.339-0.158c0-0.073-0.05-0.221-0.114-0.399l-0.212-0.634h-1.245L437.785,45.72z"/>
		<path fill="#FFFFFF" d="M438.563,43.294l0.013-0.004L438.563,43.294z M438.097,44.812h0.964l-0.481-1.469L438.097,44.812z
			 M438.031,44.86l0.524-1.602h0.021h0.012v0.027h-0.008h0.008v-0.027h0.015l0.522,1.602H438.031z M439.153,46.479
			c0.271-0.012,0.539-0.022,0.801-0.022c0.257,0,0.496,0.011,0.735,0.022V46.36h-0.008c-0.188,0.005-0.316-0.072-0.389-0.23
			c-0.069-0.168-0.138-0.373-0.202-0.562l-1.01-2.875c-0.017-0.045-0.032-0.091-0.048-0.134c-0.005-0.002-0.004-0.002-0.008-0.002
			h-0.009c-0.011,0-0.016,0-0.032,0.006c-0.108,0.064-0.326,0.176-0.49,0.218c-0.031,0.209-0.135,0.482-0.205,0.687l-0.879,2.521
			c-0.082,0.239-0.274,0.371-0.498,0.371h-0.01v0.118c0.191-0.012,0.379-0.022,0.569-0.022c0.212,0,0.431,0.011,0.64,0.022V46.36
			h-0.035c-0.179,0-0.428-0.022-0.436-0.212c0.002-0.114,0.066-0.25,0.122-0.437l0.022,0.008l-0.022-0.008l0.182-0.588h1.279
			l0.221,0.652c0.062,0.175,0.114,0.322,0.114,0.403c-0.011,0.169-0.242,0.177-0.368,0.181h-0.037V46.479z M440.711,46.527
			c-0.247-0.011-0.493-0.022-0.758-0.022c-0.266,0-0.543,0.012-0.824,0.022h-0.021v-0.022v-0.193h0.02h0.062
			c0.129,0,0.315-0.03,0.316-0.132c0.002-0.062-0.047-0.214-0.108-0.389l-0.209-0.623h-1.214l-0.168,0.559
			c-0.055,0.187-0.123,0.33-0.123,0.422c0,0.129,0.209,0.163,0.392,0.163h0.084v0.026v0.189h-0.026
			c-0.216-0.011-0.445-0.022-0.662-0.022c-0.197,0-0.393,0.012-0.592,0.022h-0.025v-0.022v-0.193h0.025h0.032
			c0.203,0,0.376-0.117,0.454-0.338l0.879-2.524c0.071-0.201,0.17-0.475,0.222-0.692c0.168-0.06,0.387-0.17,0.495-0.237
			c0.018-0.004,0.031-0.013,0.055-0.013c0.012-0.004,0.042,0,0.061,0.031c0.016,0.046,0.032,0.094,0.048,0.141l1.012,2.873
			c0.064,0.189,0.128,0.396,0.203,0.555c0.062,0.148,0.166,0.205,0.342,0.205h0.056v0.026v0.189H440.711z"/>
		<path fill="#FFFFFF" d="M440.955,42.943c-0.412,0-0.428,0.1-0.51,0.498h-0.169c0.021-0.151,0.052-0.304,0.068-0.463
			c0.024-0.157,0.032-0.311,0.032-0.472h0.134c0.044,0.169,0.183,0.161,0.327,0.161h2.839c0.145,0,0.282-0.004,0.293-0.173
			l0.132,0.024c-0.023,0.148-0.046,0.298-0.061,0.448c-0.011,0.147-0.011,0.296-0.011,0.439l-0.165,0.064
			c-0.01-0.2-0.036-0.528-0.408-0.528h-0.898v2.923c0,0.422,0.192,0.472,0.455,0.472h0.106v0.167c-0.217,0-0.6-0.022-0.896-0.022
			c-0.332,0-0.715,0.022-0.929,0.022v-0.167h0.104c0.306,0,0.457-0.03,0.457-0.459v-2.936H440.955z"/>
		<path fill="#FFFFFF" d="M443.12,46.527c-0.22,0-0.604-0.022-0.896-0.022c-0.329,0-0.713,0.022-0.929,0.022h-0.025v-0.022v-0.193
			h0.025h0.104c0.306-0.004,0.424-0.012,0.433-0.433l-0.001-2.911h-0.875v-0.024v-0.026h0.926v2.962c0,0.437-0.18,0.481-0.482,0.481
			h-0.079v0.118c0.214,0,0.587-0.022,0.904-0.022c0.287,0,0.652,0.022,0.872,0.022V46.36h-0.082c-0.263,0-0.477-0.064-0.477-0.494
			v-2.949h0.92c0.372,0.004,0.42,0.316,0.43,0.517l0.117-0.038c0-0.144,0.003-0.288,0.014-0.432
			c0.017-0.143,0.034-0.281,0.053-0.422l-0.079-0.015c-0.025,0.158-0.183,0.166-0.314,0.166h-2.839h-0.025
			c-0.128,0-0.271-0.008-0.321-0.159H440.4c0,0.151-0.011,0.3-0.031,0.444c-0.017,0.151-0.044,0.3-0.065,0.44h0.118
			c0.073-0.38,0.124-0.505,0.533-0.502v0.026v0.024c-0.409,0.007-0.399,0.075-0.488,0.478l-0.004,0.022h-0.018h-0.192l0.003-0.03
			c0.021-0.151,0.048-0.305,0.062-0.463c0.024-0.157,0.034-0.307,0.034-0.468v-0.018h0.024h0.15l0.006,0.01
			c0.038,0.142,0.136,0.142,0.279,0.146c0.008,0,0.017,0,0.025,0h2.839c0.148-0.004,0.262-0.004,0.27-0.149v-0.021l0.026,0.004
			l0.156,0.021l-0.006,0.024c-0.021,0.148-0.043,0.294-0.06,0.444c-0.012,0.147-0.012,0.296-0.012,0.439v0.019l-0.015,0.004
			l-0.192,0.072v-0.03c-0.016-0.204-0.037-0.504-0.388-0.504h-0.876v2.898c0.005,0.411,0.171,0.441,0.433,0.445h0.125v0.026v0.189
			H443.12z"/>
		<path fill="#FFFFFF" d="M444.302,46.338h0.079c0.195,0,0.405-0.03,0.405-0.315v-2.877c0-0.281-0.21-0.312-0.405-0.312h-0.079
			v-0.166c0.217,0,0.545,0.021,0.814,0.021c0.273,0,0.604-0.021,0.864-0.021v0.166h-0.076c-0.201,0-0.41,0.03-0.41,0.312v2.877
			c0,0.285,0.209,0.315,0.41,0.315h0.076v0.167c-0.264,0-0.595-0.022-0.869-0.022c-0.27,0-0.593,0.022-0.81,0.022V46.338z"/>
		<path fill="#FFFFFF" d="M445.957,46.479V46.36h-0.052c-0.198,0-0.436-0.034-0.436-0.338v-2.877c0-0.3,0.237-0.334,0.436-0.334
			h0.052v-0.118c-0.256,0-0.574,0.023-0.84,0.023c-0.262,0-0.574-0.023-0.792-0.023v0.118h0.057c0.192,0,0.432,0.034,0.432,0.334
			v2.877c0,0.304-0.239,0.338-0.432,0.338h-0.057v0.118c0.215-0.004,0.525-0.022,0.787-0.022
			C445.376,46.456,445.695,46.479,445.957,46.479 M445.981,46.527c-0.266,0-0.598-0.022-0.869-0.022
			c-0.269,0-0.593,0.022-0.81,0.022h-0.021v-0.022v-0.167v-0.026h0.021h0.079c0.195-0.004,0.379-0.02,0.38-0.289v-2.877
			c-0.001-0.27-0.185-0.281-0.38-0.289h-0.101v-0.022v-0.189h0.021c0.217,0,0.548,0.023,0.814,0.023
			c0.273,0,0.604-0.023,0.864-0.023H446v0.023v0.188h-0.02h-0.076c-0.204,0.008-0.384,0.02-0.385,0.289v2.877
			c0.001,0.27,0.181,0.285,0.385,0.289H446v0.026v0.189H445.981z"/>
		<path fill="#FFFFFF" d="M448.253,46.342c1.063,0,1.25-0.938,1.25-1.739c0-0.801-0.433-1.772-1.344-1.772
			c-0.962,0-1.25,0.854-1.25,1.591C446.91,45.404,447.362,46.342,448.253,46.342 M448.168,42.587c1.172,0,2.105,0.729,2.105,1.895
			c0,1.265-0.904,2.104-2.074,2.104c-1.165,0-2.057-0.79-2.057-1.972C446.143,43.472,447.028,42.587,448.168,42.587"/>
		<path fill="#FFFFFF" d="M446.888,44.421c0-0.744,0.288-1.617,1.271-1.617c0.932,0.004,1.366,0.994,1.368,1.799
			c-0.002,0.802-0.188,1.763-1.274,1.763v-0.023v-0.023c1.045,0,1.225-0.914,1.225-1.716c0-0.796-0.426-1.749-1.318-1.749
			c-0.943,0-1.223,0.831-1.226,1.567c0.003,0.979,0.449,1.895,1.319,1.897v0.023v0.023
			C447.342,46.365,446.888,45.408,446.888,44.421 M446.118,44.613c0-1.157,0.898-2.05,2.051-2.05v0.023v0.023
			c-1.126,0-2.002,0.872-2.002,2.003c0.002,1.167,0.877,1.946,2.032,1.946c1.158,0,2.051-0.829,2.054-2.078
			c0-1.157-0.921-1.871-2.084-1.871v-0.023v-0.023c1.181,0,2.124,0.738,2.128,1.918c-0.003,1.275-0.918,2.122-2.098,2.126
			C447.023,46.604,446.118,45.807,446.118,44.613"/>
		<path fill="#FFFFFF" d="M453.976,45.418l0.013-0.01v-2.058c0-0.452-0.314-0.517-0.482-0.517h-0.116v-0.166
			c0.254,0,0.507,0.021,0.767,0.021c0.225,0,0.451-0.021,0.677-0.021v0.166h-0.084c-0.232,0-0.487,0.042-0.487,0.699v2.497
			c0,0.194,0.004,0.384,0.032,0.555h-0.21l-2.827-3.155v2.267c0,0.479,0.091,0.642,0.514,0.642h0.096v0.167
			c-0.237,0-0.473-0.022-0.706-0.022c-0.251,0-0.504,0.022-0.752,0.022v-0.167h0.08c0.38,0,0.494-0.259,0.494-0.694v-2.315
			c0-0.304-0.254-0.494-0.502-0.494h-0.072v-0.166c0.209,0,0.424,0.021,0.631,0.021c0.165,0,0.327-0.021,0.49-0.021L453.976,45.418z
			"/>
		<path fill="#FFFFFF" d="M453.963,45.408L453.963,45.408l-0.006-0.004L453.963,45.408z M453.976,45.418l0.017-0.014L453.976,45.418
			z M454.084,46.56h0.182c-0.025-0.165-0.029-0.347-0.029-0.529v-2.497c0-0.661,0.277-0.722,0.513-0.722h0.058v-0.118
			c-0.214,0-0.432,0.023-0.653,0.023c-0.248,0-0.493-0.023-0.739-0.023v0.118h0.092c0.171,0,0.503,0.07,0.503,0.539l-0.005,2.075
			l-0.012,0.013l-0.017,0.019l-2.446-2.764c-0.162,0-0.321,0.023-0.49,0.023c-0.2,0-0.407-0.023-0.605-0.023v0.118h0.047
			c0.258,0,0.522,0.196,0.522,0.517v2.315c0,0.436-0.12,0.717-0.515,0.717h-0.055v0.118c0.239,0,0.48-0.022,0.724-0.022
			c0.229,0,0.456,0.022,0.684,0.022V46.36h-0.071c-0.43,0-0.539-0.186-0.539-0.664v-2.327L454.084,46.56z M454.294,46.607
			l-0.23-0.008l-2.786-3.105v2.202c0.008,0.479,0.085,0.611,0.492,0.615h0.118v0.026v0.189h-0.021c-0.237,0-0.475-0.022-0.709-0.022
			c-0.247,0-0.501,0.022-0.749,0.022h-0.024v-0.022v-0.193h0.024h0.08c0.36,0,0.465-0.232,0.469-0.668v-2.315
			c0-0.289-0.241-0.472-0.477-0.472h-0.097v-0.022v-0.189h0.024c0.211,0,0.426,0.023,0.631,0.023c0.162,0,0.323-0.023,0.509-0.016
			l2.415,2.717v-2.019c-0.004-0.437-0.293-0.486-0.457-0.494h-0.142v-0.022v-0.189h0.024c0.257,0,0.509,0.023,0.765,0.023
			c0.226,0,0.452-0.023,0.68-0.023h0.023v0.023v0.188h-0.023h-0.084c-0.226,0.008-0.459,0.025-0.464,0.677v2.497
			c0,0.194,0.005,0.384,0.032,0.551l0.004,0.026H454.294z"/>
		<path fill="#FFFFFF" d="M456.519,43.286h-0.014l-0.508,1.553h1.026L456.519,43.286z M455.716,45.72
			c-0.057,0.186-0.123,0.326-0.123,0.429c0,0.159,0.231,0.189,0.415,0.189h0.061v0.167c-0.221-0.014-0.448-0.022-0.668-0.022
			c-0.198,0-0.394,0.009-0.591,0.022v-0.167h0.031c0.214,0,0.396-0.125,0.478-0.356l0.88-2.521c0.073-0.204,0.168-0.478,0.2-0.683
			c0.181-0.057,0.398-0.171,0.504-0.235c0.017-0.004,0.024-0.012,0.044-0.012c0.016,0,0.025,0,0.037,0.02
			c0.015,0.041,0.035,0.091,0.049,0.136l1.013,2.875c0.064,0.189,0.128,0.391,0.2,0.561c0.07,0.148,0.183,0.217,0.365,0.217h0.032
			v0.167c-0.246-0.014-0.493-0.022-0.761-0.022c-0.266,0-0.54,0.009-0.822,0.022v-0.167h0.061c0.126,0,0.343-0.022,0.343-0.158
			c0-0.073-0.049-0.221-0.113-0.399l-0.213-0.634h-1.247L455.716,45.72z"/>
		<path fill="#FFFFFF" d="M456.495,43.294l0.011-0.004L456.495,43.294z M456.03,44.812h0.958l-0.477-1.469L456.03,44.812z
			 M455.962,44.86l0.525-1.602h0.018h0.014v0.027h-0.008h0.008v-0.027h0.017l0.52,1.602H455.962z M457.083,46.479
			c0.271-0.012,0.537-0.022,0.799-0.022c0.26,0,0.498,0.011,0.735,0.022V46.36h-0.009c-0.188,0-0.315-0.072-0.382-0.23
			c-0.073-0.168-0.141-0.373-0.205-0.562l-1.011-2.875c-0.018-0.045-0.032-0.091-0.044-0.134c-0.008-0.002-0.008-0.002-0.009-0.002
			h-0.012c-0.015,0-0.02,0-0.032,0.006c-0.108,0.064-0.325,0.18-0.489,0.218c-0.033,0.209-0.133,0.482-0.205,0.687l-0.88,2.521
			c-0.085,0.239-0.274,0.371-0.499,0.371h-0.008v0.118c0.19-0.012,0.377-0.022,0.567-0.022c0.214,0,0.432,0.011,0.644,0.022V46.36
			h-0.039c-0.181,0-0.431-0.019-0.438-0.212c0.003-0.114,0.073-0.25,0.123-0.437l0.026,0.008l-0.026-0.008l0.183-0.588h1.285
			l0.215,0.652c0.062,0.175,0.114,0.322,0.114,0.403c-0.01,0.169-0.241,0.177-0.366,0.181h-0.037V46.479z M458.643,46.527
			c-0.25-0.011-0.496-0.022-0.761-0.022c-0.266,0-0.54,0.012-0.819,0.022h-0.026v-0.022v-0.193h0.023h0.061
			c0.129,0,0.317-0.03,0.317-0.132c0.001-0.062-0.048-0.214-0.108-0.389l-0.21-0.623h-1.211l-0.168,0.559
			c-0.06,0.187-0.123,0.33-0.122,0.422c0,0.129,0.205,0.163,0.387,0.163h0.085v0.026v0.189h-0.024
			c-0.221-0.011-0.445-0.022-0.665-0.022c-0.198,0-0.392,0.012-0.591,0.022h-0.024v-0.022v-0.193h0.024h0.031
			c0.204,0,0.374-0.117,0.455-0.338l0.88-2.524c0.07-0.201,0.17-0.475,0.218-0.692c0.174-0.06,0.395-0.17,0.504-0.237
			c0.01-0.004,0.025-0.013,0.049-0.013c0.013-0.004,0.041,0,0.057,0.035c0.02,0.042,0.033,0.09,0.055,0.137l1.009,2.873
			c0.066,0.189,0.132,0.396,0.201,0.558c0.068,0.146,0.164,0.202,0.341,0.202h0.059v0.026v0.189H458.643z"/>
		<path fill="#FFFFFF" d="M460.028,45.966c0,0.221,0.153,0.285,0.329,0.304c0.224,0.019,0.473,0.019,0.728-0.008
			c0.228-0.03,0.425-0.159,0.526-0.296c0.085-0.121,0.136-0.276,0.17-0.397h0.157c-0.061,0.314-0.136,0.622-0.203,0.937
			c-0.483,0-0.968-0.022-1.449-0.022c-0.483,0-0.967,0.022-1.451,0.022v-0.167h0.076c0.199,0,0.411-0.03,0.411-0.368v-2.824
			c0-0.281-0.212-0.312-0.411-0.312h-0.076v-0.166c0.293,0,0.576,0.021,0.869,0.021c0.28,0,0.553-0.021,0.833-0.021v0.166h-0.138
			c-0.206,0-0.371,0.008-0.371,0.296V45.966z"/>
		<path fill="#FFFFFF" d="M461.715,46.479c0.065-0.299,0.133-0.588,0.192-0.884h-0.109c-0.035,0.117-0.085,0.266-0.169,0.387
			c-0.104,0.14-0.309,0.273-0.545,0.3c-0.145,0.015-0.286,0.026-0.423,0.026c-0.105,0-0.21-0.008-0.307-0.016
			c-0.182-0.019-0.353-0.094-0.352-0.326V43.13c0-0.309,0.192-0.318,0.396-0.318h0.113v-0.118c-0.27,0-0.535,0.023-0.809,0.023
			c-0.287,0-0.565-0.023-0.845-0.023v0.118h0.052c0.195,0,0.436,0.034,0.436,0.334v2.824c0,0.353-0.236,0.391-0.436,0.391h-0.052
			v0.118c0.474,0,0.948-0.022,1.427-0.022C460.763,46.456,461.24,46.479,461.715,46.479 M461.735,46.527
			c-0.483,0-0.968-0.022-1.449-0.022c-0.483,0-0.967,0.022-1.453,0.022h-0.021v-0.022v-0.193h0.021h0.078
			c0.199-0.004,0.387-0.02,0.389-0.342v-2.824c-0.002-0.27-0.188-0.281-0.389-0.289h-0.099v-0.022v-0.189h0.021
			c0.295,0,0.578,0.023,0.871,0.023c0.278,0,0.553-0.023,0.833-0.023h0.023v0.023v0.188h-0.023h-0.138
			c-0.21,0.008-0.343-0.003-0.349,0.273v2.836c0.002,0.205,0.136,0.259,0.309,0.281c0.096,0.008,0.197,0.012,0.303,0.012
			c0.137,0,0.275-0.004,0.416-0.02c0.226-0.026,0.419-0.16,0.512-0.288c0.085-0.113,0.134-0.266,0.165-0.387l0.005-0.021h0.021
			h0.188l-0.007,0.031c-0.062,0.315-0.139,0.619-0.203,0.934l-0.007,0.019H461.735z"/>
	</g>
</g>
<path fill="#114B9B" d="M582.048,55.827c0,1.692-1.374,3.067-3.066,3.067h-85.886c-1.693,0-3.066-1.375-3.066-3.067V4.449
	c0-1.695,1.373-3.067,3.066-3.067h85.886c1.692,0,3.066,1.373,3.066,3.067V55.827z"/>
<path fill="#FFFFFF" d="M552.056,32.149c0.114,3.353,0.227,6.814,0.058,10.224c-0.113,1.34-0.949,2.628-2.178,3.408
	c-0.951,0.615-2.123,0.67-3.354,0.727l-4.439-0.057l-0.027-28.437c0.224-1.901,1.62-3.521,3.408-4.022
	c2.177-0.278,4.188-0.169,6.478-0.221l0.113,1.449v16.146l-0.058,0.057V32.149z"/>
<path fill="#FFFFFF" d="M519.88,31.004V17.596c0.278-1.508,1.507-2.904,2.96-3.461c2.18-0.672,4.694-0.279,6.928-0.339
	c0.113,2.181,0,4.918,0.055,6.819l0.112,17.482c-0.28,2.684,0.728,6.312-2.624,7.82c-2.124,1.062-4.971,0.395-7.375,0.614
	l-0.056-0.391V31.563V31.004z"/>
<path fill="#FFFFFF" d="M540.941,15.658l0.056,27.207c-0.39,1.283-1.398,2.68-2.793,3.186c-2.121,0.725-4.75,0.391-7.094,0.391
	l-0.112-28.66c0.112-1.341,1.004-2.512,2.178-3.239c0.84-0.559,1.847-0.728,2.907-0.783h4.746L540.941,15.658z"/>
<g>
	<g>
		<path fill="#114B9B" d="M519.88,31.423c0.894,1.175,2.123,2.066,3.631,2.124c1.844,0.167,4.245,0.333,5.476-1.397
			c0.836-0.896,0.334-2.124,0.503-3.298l-0.057-2.123c-1.061-0.222-2.014,0-3.238-0.056c-0.615,2.291,1.004,4.86-1.623,6.035
			c-0.613,0.166-1.506,0.056-2.123-0.335c-1.006-0.224-0.445-1.846-1.785-1.398l-0.783-0.109V31.423z"/>
		<path fill="#114B9B" d="M540.495,26.729c0.112,0.336,0,0.615,0.056,1.005c-1.674-0.446-3.744-0.948-5.251,0.282
			c-0.56,0.667-0.895,1.341-0.838,2.232c0.165,1.005,0.781,1.959,1.732,2.35c1.45,0.444,2.959,0.054,4.301-0.281
			c0.056,0.281,0.112,0.668,0,0.893h-6.426c-1.116-0.225-2.012-0.836-2.512-1.956c-0.447-1.062-0.226-2.512,0.557-3.407
			c0.673-0.781,1.62-1.227,2.682-1.173L540.495,26.729z"/>
		<path fill="#114B9B" d="M552.056,31.925c-0.167,0.673-0.726,1.284-1.394,1.396h-7.82l-0.282-0.112
			c0-2.234-0.057-4.357,0.057-6.536h4.971c1.565,0.168,3.297-0.503,4.023,0.951c0.223,0.501,0.168,1.175-0.226,1.563
			c-0.221,0.39-0.723,0.447-0.836,0.727c0.615,0.165,1.284,0.669,1.507,1.283V31.925z M545.353,27.344
			c-0.168,0.612-0.168,1.455-0.057,2.121c1.174-0.052,2.682,0.392,3.466-0.501c0.281-0.335,0.111-0.893-0.058-1.175
			C547.813,27.01,546.47,27.512,545.353,27.344z M548.371,30.417c-1.062-0.169-2.124-0.112-3.127-0.057
			c-0.059,0.837,0,1.508,0.109,2.291c1.117,0,2.347,0.166,3.352-0.335c0.28-0.28,0.448-0.727,0.339-1.119
			C548.985,30.865,548.705,30.583,548.371,30.417z"/>
	</g>
</g>
</svg>
